<svg width="336" height="379" viewBox="0 0 336 379" fill="none" xmlns="http://www.w3.org/2000/svg">
<g clip-path="url(#clip0)">
<path d="M407 361.947L391.398 379L219.73 210.737L235.327 193.684L407 361.947Z" fill="url(#paint0_linear)"/>
<path d="M318.764 147.935C298.026 170.946 236.774 156.516 200.544 121.543C164.315 86.5706 162.714 38.9288 183.458 15.9117C204.202 -7.10539 263 -4.88872 299.229 30.0896C335.458 65.0678 339.503 124.923 318.764 147.935Z" fill="url(#paint1_linear)"/>
<path d="M258.923 178.584C232.777 218.78 184.264 232.327 150.569 208.849C116.873 185.371 110.756 133.752 136.902 93.5554C163.048 53.3591 211.561 39.8123 245.256 63.2902C278.951 86.7682 285.069 138.388 258.923 178.584Z" fill="url(#paint2_linear)"/>
<path d="M244.302 196.57C218.156 236.766 168.466 249.49 133.318 225.002C98.1702 200.515 90.8756 148.072 117.022 107.876C143.168 67.6794 192.858 54.9556 228.005 79.4431C263.153 103.931 270.448 156.379 244.302 196.57Z" fill="url(#paint3_linear)"/>
<path d="M234.457 211.708C208.311 251.904 158.622 264.628 123.474 240.14C88.3258 215.653 81.0311 163.21 107.177 123.014C133.324 82.8176 183.013 70.0938 218.161 94.5813C253.309 119.069 260.603 171.512 234.457 211.708Z" fill="url(#paint4_linear)"/>
<path d="M223.399 223.653C197.253 263.849 147.563 276.573 112.415 252.085C77.2672 227.598 69.9725 175.155 96.1188 134.959C122.265 94.7625 171.954 82.0386 207.102 106.526C242.25 131.014 249.545 183.456 223.399 223.653Z" fill="url(#paint5_linear)"/>
<path d="M188.876 331.726C164.077 362.188 108.28 343.243 60.3293 301.417C12.3786 259.591 -15.1088 204.229 9.69085 173.767C34.4905 143.304 102.189 149.29 150.139 191.11C198.09 232.931 213.681 301.269 188.876 331.726Z" fill="url(#paint6_linear)"/>
<path d="M179.513 337.409C197.382 315.463 172.994 263.767 125.04 221.944C77.0869 180.121 23.7274 164.008 5.85836 185.955C-12.0106 207.901 12.3775 259.597 60.3309 301.42C108.284 343.243 161.644 359.356 179.513 337.409Z" fill="#00CCA6"/>
<path d="M170.322 334.425C156.358 351.571 109.558 334.524 65.7897 296.352C22.0218 258.181 -2.14698 213.326 11.8168 196.18C25.7805 179.034 72.5807 196.081 116.349 234.253C160.117 272.424 184.285 317.279 170.322 334.425Z" fill="url(#paint7_linear)"/>
<path d="M166.595 339.001C152.631 356.148 105.831 339.1 62.0628 300.928C18.2949 262.757 -5.87393 217.908 8.08451 200.762C22.043 183.615 68.8485 200.663 112.616 238.834C156.384 277.006 180.553 321.855 166.595 339.001Z" fill="url(#paint8_linear)"/>
<path d="M167.75 152.878C152.62 173.865 130.609 183.352 118.586 174.063C106.562 164.774 109.075 140.237 124.205 119.25C139.335 98.263 161.346 88.7763 173.37 98.0654C185.393 107.355 182.88 131.897 167.75 152.878Z" fill="url(#paint9_linear)"/>
<path d="M132.724 238.845C130.18 242.373 127.232 250.604 124.041 248.008C100.466 228.832 81.9004 214.857 52.8861 194.468C49.2282 191.895 56.5122 186.002 59.2954 182.145C74.4255 161.158 103.127 156.84 123.405 172.499C143.682 188.153 147.854 217.858 132.724 238.845Z" fill="url(#paint10_linear)"/>
<path d="M281.39 76.5845C278.845 80.1125 270.061 93.3521 267.58 90.0326C253.256 70.8728 242.955 50.4345 203.105 51.0984C184.545 51.4056 200.322 21.5904 203.105 17.7277C218.235 -3.25924 251.793 -5.42653 272.07 10.2328C292.348 25.8921 296.52 55.5975 281.39 76.5845Z" fill="url(#paint11_linear)"/>
<path opacity="0.4" d="M323.997 100.079C322.364 92.2878 324.612 84.908 319.682 78.5708C318.266 89.7035 308.459 100.375 301.477 109.193C293.652 119.074 286.999 124.001 275.129 126.525C276.067 136.374 270.543 147.183 269.987 157.218C269.754 161.41 284.772 157.394 288.934 156.461C313.659 150.914 329.357 125.669 323.997 100.079Z" fill="url(#paint12_linear)"/>
<path d="M201.716 93.5003C197.332 99.5797 187.636 99.7662 180.055 93.9118C172.474 88.0574 169.887 78.3842 174.271 72.3048C178.655 66.2255 188.351 66.0389 195.932 71.8933C203.513 77.7477 206.1 87.4209 201.716 93.5003Z" fill="url(#paint13_linear)"/>
<path d="M404.906 364.235L397.839 371.955L234.457 210.994L240.209 202.391L404.906 364.235Z" fill="url(#paint14_linear)"/>
<path opacity="0.5" d="M255.843 246.137L241.794 200.021L236.308 208.224L228.711 219.642L255.843 246.137Z" fill="url(#paint15_linear)"/>
<g clip-path="url(#clip1)">
<path d="M63.537 247.516L73.5197 252.636L68.1112 258.7C64.0829 263.218 65.1732 266.461 73.8779 274.763C82.6764 283.155 85.7943 283.93 89.8246 279.411L95.2331 273.346L100.977 283.226C100.279 284.98 99.0761 286.913 98.0145 288.103C90.0089 297.08 84.2081 295.619 68.5791 280.712C53.0438 265.895 51.0734 259.944 59.079 250.967C60.1372 249.773 61.9026 248.377 63.537 247.516Z" fill="white" fill-opacity="0.4"/>
<path d="M56.5386 292.659C27.429 264.894 23.3582 249.457 40.0044 230.791C56.6505 212.124 71.8601 215.077 100.966 242.839C116.502 257.656 124.928 268.994 126.796 279.135L117.063 276.452C115.112 268.542 108.376 259.587 96.301 248.07C72.9008 225.751 60.6271 223.395 47.5846 238.021C34.5422 252.646 37.8038 265.108 61.2039 287.427C83.2921 308.495 96.8123 312.37 107.364 300.538C113.248 293.939 112.646 289.954 102.91 280.669L65.6583 245.137L70.9606 239.192L108.213 274.723C123.377 289.186 125.387 296.057 114.413 308.363C101.105 323.286 83.774 318.636 56.5386 292.659Z" fill="white" fill-opacity="0.4"/>
</g>
</g>
<defs>
<linearGradient id="paint0_linear" x1="302.223" y1="296.431" x2="331.732" y2="271.483" gradientUnits="userSpaceOnUse">
<stop stop-color="#00CCA6"/>
<stop offset="0.9882" stop-color="white"/>
</linearGradient>
<linearGradient id="paint1_linear" x1="250.516" y1="78.8511" x2="241.884" y2="-7.33551" gradientUnits="userSpaceOnUse">
<stop stop-color="#00CCA6"/>
<stop offset="0.9882" stop-color="white"/>
</linearGradient>
<linearGradient id="paint2_linear" x1="273.407" y1="273.958" x2="155.724" y2="87.8103" gradientUnits="userSpaceOnUse">
<stop stop-color="#004739"/>
<stop offset="1" stop-color="#009E80"/>
</linearGradient>
<linearGradient id="paint3_linear" x1="166.707" y1="128.513" x2="135.176" y2="78.496" gradientUnits="userSpaceOnUse">
<stop stop-color="#00CCA6"/>
<stop offset="0.9882" stop-color="white"/>
</linearGradient>
<linearGradient id="paint4_linear" x1="249.63" y1="143.817" x2="87.2016" y2="189.109" gradientUnits="userSpaceOnUse">
<stop stop-color="#00CCA6"/>
<stop offset="0.9882" stop-color="white"/>
</linearGradient>
<linearGradient id="paint5_linear" x1="175.891" y1="203.82" x2="97.0838" y2="92.0223" gradientUnits="userSpaceOnUse">
<stop stop-color="#00876D"/>
<stop offset="1" stop-color="#1BD1B0"/>
</linearGradient>
<linearGradient id="paint6_linear" x1="100.907" y1="249.218" x2="84.4637" y2="141.84" gradientUnits="userSpaceOnUse">
<stop stop-color="#00CCA6"/>
<stop offset="0.9882" stop-color="white"/>
</linearGradient>
<linearGradient id="paint7_linear" x1="7.85782" y1="265.303" x2="174.278" y2="265.303" gradientUnits="userSpaceOnUse">
<stop stop-color="#004739"/>
<stop offset="1" stop-color="#009E80"/>
</linearGradient>
<linearGradient id="paint8_linear" x1="112.679" y1="238.571" x2="58.6148" y2="300.936" gradientUnits="userSpaceOnUse">
<stop stop-color="#006D58"/>
<stop offset="1" stop-color="#009E80"/>
</linearGradient>
<linearGradient id="paint9_linear" x1="176.996" y1="111.003" x2="111.792" y2="160.181" gradientUnits="userSpaceOnUse">
<stop stop-color="white" stop-opacity="0.5"/>
<stop offset="1" stop-color="#DDDDDD" stop-opacity="0"/>
</linearGradient>
<linearGradient id="paint10_linear" x1="134.391" y1="189.308" x2="90.1914" y2="230.632" gradientUnits="userSpaceOnUse">
<stop stop-color="white" stop-opacity="0.5"/>
<stop offset="1" stop-color="#DDDDDD" stop-opacity="0"/>
</linearGradient>
<linearGradient id="paint11_linear" x1="281.373" y1="26.5977" x2="227.221" y2="77.2273" gradientUnits="userSpaceOnUse">
<stop stop-color="white" stop-opacity="0.5"/>
<stop offset="1" stop-color="#DDDDDD" stop-opacity="0"/>
</linearGradient>
<linearGradient id="paint12_linear" x1="320.924" y1="124.54" x2="248.077" y2="128.252" gradientUnits="userSpaceOnUse">
<stop stop-color="#00876D"/>
<stop offset="1" stop-color="#1BD1B0"/>
</linearGradient>
<linearGradient id="paint13_linear" x1="199.804" y1="77.8312" x2="182.542" y2="95.1633" gradientUnits="userSpaceOnUse">
<stop stop-color="white" stop-opacity="0.5"/>
<stop offset="1" stop-color="#DDDDDD" stop-opacity="0"/>
</linearGradient>
<linearGradient id="paint14_linear" x1="321.593" y1="284.392" x2="316.747" y2="289.337" gradientUnits="userSpaceOnUse">
<stop stop-color="white"/>
<stop offset="1" stop-color="white" stop-opacity="0"/>
</linearGradient>
<linearGradient id="paint15_linear" x1="251.771" y1="223.079" x2="234.302" y2="223.079" gradientUnits="userSpaceOnUse">
<stop stop-color="#00876D"/>
<stop offset="1" stop-color="#1BD1B0"/>
</linearGradient>
<clipPath id="clip0">
<rect width="407" height="379" fill="white"/>
</clipPath>
<clipPath id="clip1">
<rect width="66.752" height="107.224" fill="white" transform="matrix(0.665564 -0.746341 0.723626 0.690193 17.7905 255.701)"/>
</clipPath>
</defs>
</svg>
