<svg width="310" height="320" viewBox="0 0 310 320" fill="none" xmlns="http://www.w3.org/2000/svg">
<g clip-path="url(#clip0)">
<path d="M0 221.522H0.0769523C-0.468126 226.08 1.98152 230.515 7.57339 233.744L149.255 315.623C160.471 322.106 180.068 321.291 193.022 313.806L327.284 236.215C334.556 232.011 338.186 226.606 337.994 221.522H338V194.249H0V221.522Z" fill="url(#paint0_linear)"/>
<path d="M0 221.522H0.0769523C-0.468126 226.08 1.98152 230.515 7.57339 233.744L149.255 315.623C160.471 322.106 180.068 321.291 193.022 313.806L327.284 236.215C334.556 232.011 338.186 226.606 337.994 221.522H338V194.249H0V221.522Z" fill="url(#paint1_linear)"/>
<path d="M149.256 286.911L7.57396 205.032C-3.64183 198.549 -2.23745 187.226 10.7162 179.742L144.979 102.15C157.932 94.6661 177.523 93.8509 188.745 100.334L330.427 182.213C341.643 188.696 340.239 200.019 327.285 207.503L193.022 285.094C180.069 292.579 160.478 293.394 149.256 286.911Z" fill="white"/>
<path d="M327.284 203.556L193.022 281.147C180.068 288.631 160.478 289.446 149.255 282.963L7.5734 201.084C3.30255 198.62 0.865732 195.449 0.198812 192.053C-0.724615 196.874 1.68014 201.624 7.5734 205.026L149.255 286.905C160.471 293.388 180.068 292.572 193.022 285.088L327.284 207.497C335.307 202.862 338.898 196.752 337.801 191.231C336.968 195.59 333.428 200.006 327.284 203.556Z" fill="white"/>
<path opacity="0.0909" d="M120.046 118.454C124.599 115.823 130.332 114.417 136.071 114.481C138.386 114.513 140.592 114.808 142.637 115.283C144.843 115.797 147.415 116.843 149.185 117.87L288.808 198.562C293.605 201.335 296.112 205.725 295.83 210.501C295.747 211.939 295.394 213.325 294.862 214.692C293.592 217.979 290.206 221.477 286.404 223.672L206.046 271.088C205.18 271.589 204.039 272.167 203.09 272.578C199.217 274.253 194.766 275.184 190.258 275.209C185.301 275.235 180.774 274.169 177.228 272.115L37.0654 191.109C32.2623 188.33 29.7613 183.927 30.0627 179.151C30.1461 177.88 30.4411 176.641 30.8579 175.415C32.0571 171.956 35.5456 168.258 39.515 165.967L120.046 118.454Z" fill="#DAEBF2"/>
<path opacity="0.1818" d="M119.975 119.359C124.522 116.734 130.293 115.367 135.975 115.495C138.29 115.553 140.477 115.912 142.497 116.413C144.472 116.901 147.389 118.159 148.986 119.083L288.27 199.576C293.041 202.336 295.304 206.701 294.734 211.361C294.567 212.728 294.118 214.044 293.56 215.36C292.335 218.28 288.436 222.003 285.019 223.98L205.803 270.639C205.02 271.088 203.751 271.749 202.898 272.122C199.095 273.784 194.709 274.747 190.277 274.792C185.397 274.837 180.915 273.81 177.426 271.794L37.0655 190.673C32.2752 187.9 30.0372 183.509 30.64 178.849C30.8003 177.636 31.1851 176.468 31.6339 175.287C32.8075 172.206 36.8475 168.271 40.4193 166.204L119.975 119.359Z" fill="#DAEBF2"/>
<path opacity="0.2727" d="M119.904 120.258C124.445 117.633 130.254 116.31 135.885 116.503C138.193 116.593 140.361 117.016 142.362 117.536C144.112 117.992 147.37 119.475 148.787 120.29L287.731 200.59C292.483 203.337 294.496 207.676 293.637 212.221C293.387 213.524 292.842 214.75 292.258 216.027C291.085 218.588 286.673 222.53 283.627 224.288L205.552 270.183C204.86 270.581 203.455 271.319 202.699 271.659C198.96 273.316 194.651 274.31 190.29 274.375C185.493 274.445 181.056 273.45 177.625 271.473L37.0653 190.243C32.2878 187.483 30.2999 183.105 31.2233 178.547C31.4606 177.392 31.9351 176.294 32.4161 175.158C33.5511 172.456 38.1554 168.284 41.3297 166.448L119.904 120.258Z" fill="#DAEBF2"/>
<path opacity="0.3636" d="M119.834 121.163C124.368 118.544 130.216 117.26 135.789 117.517C138.097 117.633 140.245 118.12 142.221 118.666C143.747 119.09 147.351 120.791 148.588 121.51L287.192 201.611C291.918 204.345 293.701 208.658 292.54 213.087C292.213 214.326 291.572 215.462 290.957 216.701C289.86 218.909 284.903 223.062 282.242 224.603L205.309 269.74C204.699 270.093 203.167 270.909 202.506 271.204C198.838 272.853 194.599 273.874 190.309 273.958C185.59 274.054 181.197 273.097 177.83 271.152L37.0653 189.806C32.3007 187.053 30.5564 182.694 31.8005 178.246C32.1083 177.148 32.679 176.134 33.1921 175.024C34.263 172.694 39.4508 168.29 42.2339 166.686L119.834 121.163Z" fill="#DAEBF2"/>
<path opacity="0.4545" d="M119.763 122.068C124.297 119.449 130.178 118.21 135.693 118.538C137.995 118.685 140.124 119.238 142.08 119.809C143.381 120.188 147.325 122.12 148.39 122.736L286.66 202.644C291.367 205.366 292.925 209.654 291.45 213.967C291.053 215.142 290.309 216.188 289.661 217.388C288.661 219.25 283.14 223.615 280.863 224.93L205.078 269.311C204.558 269.612 202.891 270.511 202.327 270.768C198.729 272.404 194.561 273.457 190.342 273.566C185.705 273.682 181.351 272.764 178.048 270.857L37.0654 189.376C32.3136 186.629 30.8067 182.29 32.3842 177.951C32.7625 176.911 33.4295 175.98 33.9745 174.902C34.9621 172.938 40.7592 168.31 43.1383 166.936L119.763 122.068Z" fill="#DAEBF2"/>
<path opacity="0.5455" d="M119.687 122.967C124.214 120.354 130.126 119.154 135.59 119.546C137.892 119.719 139.996 120.335 141.932 120.932C143.016 121.266 147.293 123.429 148.178 123.943L286.109 203.652C290.79 206.361 292.13 210.623 290.341 214.814C289.866 215.918 289.238 217.023 288.347 218.043C287.757 219.706 281.363 224.128 279.459 225.226L204.815 268.848C204.379 269.099 202.583 270.081 202.115 270.299C198.588 271.929 194.484 273.008 190.342 273.136C185.782 273.277 181.473 272.398 178.228 270.517L37.0655 188.94C32.3265 186.199 31.0439 181.873 32.9613 177.643C33.4102 176.661 33.9745 175.679 34.7441 174.761C35.2891 173.015 42.0545 168.31 44.0361 167.167L119.687 122.967Z" fill="#DAEBF2"/>
<path opacity="0.6364" d="M119.616 123.872C124.137 121.259 130.088 120.104 135.5 120.56C137.802 120.765 139.88 121.439 141.797 122.062C142.657 122.338 147.274 124.751 147.986 125.155L285.576 204.666C290.238 207.362 291.373 211.598 289.251 215.674C288.712 216.714 288.007 217.754 287.051 218.71C286.583 220.039 279.6 224.654 278.08 225.534L204.578 268.399C204.231 268.598 202.301 269.67 201.929 269.843C198.466 271.467 194.439 272.571 190.367 272.725C185.891 272.892 181.627 272.045 178.44 270.202L37.0654 188.51C32.3392 185.782 31.2683 181.462 33.5448 177.347C34.0578 176.423 34.6927 175.499 35.5263 174.638C35.9624 173.239 43.3562 168.335 44.9466 167.417L119.616 123.872Z" fill="#DAEBF2"/>
<path opacity="0.7273" d="M119.545 124.777C124.06 122.171 130.049 121.054 135.404 121.574C137.7 121.805 139.758 122.549 141.656 123.191C142.297 123.409 147.254 126.067 147.787 126.375L285.038 205.693C289.674 208.376 290.61 212.6 288.154 216.547C287.545 217.523 286.769 218.498 285.756 219.391C285.403 220.386 277.836 225.193 276.701 225.854L204.34 267.962C204.077 268.11 202.019 269.265 201.743 269.4C198.351 271.018 194.394 272.154 190.393 272.321C185.994 272.507 181.774 271.698 178.651 269.894L37.0653 188.073C32.352 185.351 31.4862 181.032 34.1219 177.045C34.699 176.179 35.4044 175.306 36.3022 174.504C36.6292 173.457 44.6579 168.341 45.8507 167.655L119.545 124.777Z" fill="#DAEBF2"/>
<path opacity="0.8182" d="M119.475 125.675C123.983 123.069 130.011 121.997 135.308 122.581C137.604 122.845 139.636 123.647 141.515 124.315C141.938 124.469 147.229 127.376 147.582 127.582L284.493 206.701C289.11 209.364 289.854 213.588 287.051 217.401C286.378 218.319 285.525 219.224 284.448 220.052C284.21 220.713 276.066 225.713 275.303 226.156L204.09 267.506C203.917 267.609 201.73 268.848 201.544 268.938C198.223 270.549 194.337 271.711 190.406 271.903C186.083 272.115 181.909 271.345 178.85 269.573L37.0654 187.643C32.3649 184.928 31.6915 180.602 34.7055 176.744C35.3403 175.929 36.1227 175.12 37.0846 174.375C37.3026 173.676 45.9662 168.354 46.7613 167.892L119.475 125.675Z" fill="#DAEBF2"/>
<path opacity="0.9091" d="M119.404 126.58C123.906 123.981 129.973 122.947 135.212 123.602C137.501 123.891 139.508 124.757 141.374 125.451C141.586 125.528 147.203 128.699 147.383 128.801L283.954 207.721C288.546 210.372 289.11 214.602 285.955 218.267C285.217 219.127 284.287 219.962 283.146 220.726C283.031 221.06 274.297 226.246 273.918 226.471L203.847 267.064C203.757 267.115 201.442 268.437 201.352 268.482C198.095 270.08 194.279 271.274 190.425 271.486C186.186 271.724 182.05 270.985 179.049 269.252L37.0655 187.206C32.3778 184.498 31.8969 180.152 35.2828 176.442C35.9817 175.678 36.8346 174.927 37.8607 174.24C37.9697 173.894 47.2681 168.361 47.6593 168.13L119.404 126.58Z" fill="#DAEBF2"/>
<path d="M179.248 268.938L37.0655 186.77C31.448 183.529 32.1534 177.861 38.6366 174.112L119.327 127.479C125.811 123.731 135.616 123.326 141.233 126.568L283.409 208.735C289.026 211.977 288.321 217.645 281.838 221.393L201.147 268.026C194.67 271.775 184.859 272.186 179.248 268.938Z" fill="#DAEBF2"/>
<path d="M179.248 268.81L37.0655 186.642C34.5646 185.198 33.3141 183.272 33.2756 181.243C33.2756 181.179 33.2756 174.26 33.2756 174.196C33.3205 171.737 35.1353 176.006 38.6366 173.984L119.328 127.351C125.811 123.602 135.616 123.198 141.233 126.439L283.409 208.607C285.281 209.692 286.641 205.096 287.128 206.553C287.289 207.041 287.186 213.492 287.199 213.993C287.25 216.515 285.435 219.185 281.838 221.265L201.147 267.898C194.67 271.647 184.859 272.051 179.248 268.81Z" fill="#7CBAC4"/>
<path d="M179.248 261.89L37.0655 179.722C31.448 176.481 32.1534 170.813 38.6366 167.064L119.327 120.431C125.811 116.683 135.616 116.278 141.233 119.52L283.409 201.688C289.026 204.929 288.321 210.597 281.838 214.346L201.147 260.979C194.67 264.727 184.859 265.132 179.248 261.89Z" fill="url(#paint2_linear)"/>
<path d="M287.225 208.826C287.218 210.315 287.199 211.656 287.205 211.881C287.257 214.404 285.442 217.074 281.844 219.154L201.153 265.787C194.67 269.535 184.865 269.94 179.248 266.698L37.0655 184.524C34.5646 183.08 33.3141 181.154 33.2756 179.126C33.2756 179.1 33.2756 177.81 33.2756 176.346C33.2756 178.407 33.2756 181.205 33.2756 181.244C33.3141 183.266 34.5646 185.191 37.0655 186.642L179.241 268.81C184.859 272.051 194.664 271.647 201.147 267.898L281.838 221.272C285.435 219.192 287.25 216.522 287.199 213.999C287.199 213.672 287.237 210.899 287.225 208.826Z" fill="url(#paint3_linear)"/>
<path d="M281.838 213.177L201.147 259.81C194.664 263.559 184.859 263.963 179.241 260.722L37.0655 178.547C34.7377 177.199 33.5129 175.434 33.3205 173.566C33.0319 175.864 34.2568 178.098 37.0655 179.722L179.241 261.89C184.859 265.131 194.664 264.727 201.147 260.978L281.838 214.345C285.634 212.15 287.43 209.307 287.16 206.668C286.872 208.96 285.076 211.303 281.838 213.177Z" fill="white"/>
<path d="M282.543 198.17L142.702 117.357C138.04 114.667 135.814 109.14 137.302 103.967L167.762 -1.52066C169.866 -8.83816 178.279 -12.2337 184.865 -8.42735L324.707 72.3861C329.369 75.0756 331.594 80.6022 330.106 85.7758L299.646 191.263C297.542 198.587 289.129 201.983 282.543 198.17Z" fill="#9BCDDB"/>
<path d="M279.702 198.53L139.861 117.71C135.199 115.02 132.974 109.494 134.461 104.32L164.922 -1.16763C167.025 -8.48513 175.438 -11.8807 182.024 -8.07433L321.866 72.7391C326.528 75.4286 328.753 80.9553 327.265 86.1289L296.805 191.616C294.702 198.94 286.295 202.336 279.702 198.53Z" fill="url(#paint4_linear)"/>
<path d="M285.538 193.741C284.608 193.741 283.71 193.497 282.877 193.016L143.035 112.202C140.9 110.97 139.887 108.447 140.566 106.078L171.027 0.597349C171.802 -2.09215 174.175 -3.29248 176.189 -3.29248C177.125 -3.29248 178.016 -3.04856 178.85 -2.56715L318.692 78.2463C320.827 79.4787 321.84 82.0013 321.16 84.3699L290.7 189.851C289.931 192.541 287.551 193.741 285.538 193.741Z" fill="#267370"/>
<path d="M285.538 192.682C284.794 192.682 284.076 192.483 283.409 192.098L143.567 111.285C141.855 110.296 141.041 108.274 141.586 106.374L172.046 0.899422C172.668 -1.25731 174.579 -2.22656 176.195 -2.22656C176.939 -2.22656 177.657 -2.02758 178.324 -1.64245L318.159 79.171C319.871 80.1595 320.686 82.1814 320.141 84.0878L289.68 189.563C289.065 191.719 287.154 192.682 285.538 192.682Z" fill="url(#paint5_linear)"/>
<path d="M321.872 72.7453L182.037 -8.0681C179.478 -9.54444 176.65 -9.92957 174.021 -9.4289C176.388 -9.68565 178.863 -9.24917 181.127 -7.93972L320.968 72.8737C325.63 75.5632 327.855 81.0899 326.367 86.2635L295.907 191.751C294.618 196.231 290.969 199.229 286.82 200.018C291.335 199.524 295.439 196.424 296.818 191.623L327.278 86.1351C328.759 80.9615 326.534 75.4348 321.872 72.7453Z" fill="white"/>
<path d="M204.513 231.625L89.0594 164.901C86.7444 163.566 87.0394 161.23 89.7071 159.689L133.057 134.636C135.725 133.096 139.765 132.929 142.08 134.264L257.527 200.988C259.842 202.323 259.547 204.66 256.879 206.2L213.53 231.253C210.862 232.793 206.822 232.96 204.513 231.625Z" fill="url(#paint6_linear)"/>
<path opacity="0.8" d="M135.577 139.515L142.977 143.79C143.92 144.335 145.44 144.335 146.376 143.796C147.312 143.257 147.306 142.378 146.363 141.832L138.963 137.557C138.02 137.011 136.5 137.011 135.564 137.551C134.634 138.09 134.641 138.969 135.577 139.515ZM148.249 146.832L151.75 148.861C152.693 149.406 154.212 149.406 155.149 148.867C156.085 148.328 156.078 147.448 155.136 146.903L151.634 144.874C150.692 144.329 149.172 144.329 148.236 144.868C147.299 145.414 147.306 146.287 148.249 146.832ZM157.021 151.903L160.522 153.931C161.465 154.477 162.985 154.477 163.921 153.938C164.857 153.399 164.851 152.519 163.908 151.974L160.401 149.945C159.458 149.4 157.938 149.4 157.002 149.939C156.078 150.478 156.078 151.358 157.021 151.903ZM165.794 156.974L169.301 159.002C170.244 159.548 171.764 159.548 172.7 159.009C173.636 158.47 173.63 157.59 172.687 157.045L169.18 155.016C168.237 154.471 166.717 154.471 165.781 155.01C164.851 155.549 164.851 156.428 165.794 156.974ZM174.566 162.045L178.074 164.073C179.017 164.619 180.536 164.619 181.473 164.08C182.409 163.541 182.403 162.661 181.46 162.116L177.959 160.087C177.016 159.542 175.496 159.542 174.56 160.081C173.624 160.62 173.63 161.499 174.566 162.045ZM183.339 167.116L186.84 169.144C187.783 169.69 189.303 169.69 190.239 169.151C191.175 168.611 191.169 167.732 190.226 167.186L186.725 165.158C185.782 164.612 184.262 164.612 183.326 165.152C182.396 165.691 182.403 166.57 183.339 167.116ZM192.118 172.187L195.625 174.215C196.568 174.761 198.088 174.761 199.024 174.222C199.96 173.682 199.954 172.803 199.011 172.257L195.51 170.229C194.567 169.683 193.048 169.683 192.111 170.223C191.169 170.762 191.175 171.641 192.118 172.187ZM200.89 177.258L204.392 179.286C205.334 179.832 206.854 179.832 207.79 179.292C208.727 178.753 208.72 177.874 207.778 177.328L204.276 175.3C203.334 174.754 201.814 174.754 200.877 175.293C199.941 175.833 199.948 176.712 200.89 177.258ZM209.663 182.322L213.164 184.35C214.107 184.896 215.627 184.896 216.563 184.357C217.499 183.818 217.493 182.938 216.55 182.393L213.049 180.364C212.106 179.819 210.586 179.819 209.65 180.358C208.714 180.904 208.72 181.783 209.663 182.322ZM218.435 187.393L221.943 189.421C222.886 189.967 224.406 189.967 225.342 189.428C226.278 188.889 226.272 188.009 225.329 187.464L221.828 185.435C220.885 184.89 219.365 184.89 218.429 185.429C217.493 185.974 217.493 186.854 218.435 187.393ZM227.208 192.464L230.709 194.492C231.652 195.038 233.172 195.038 234.108 194.499C235.044 193.96 235.038 193.08 234.095 192.535L230.587 190.506C229.645 189.961 228.125 189.961 227.189 190.5C226.265 191.045 226.272 191.925 227.208 192.464ZM235.981 197.535L239.482 199.563C240.425 200.109 241.944 200.109 242.881 199.57C243.817 199.03 243.81 198.151 242.868 197.605L239.366 195.577C238.424 195.031 236.904 195.031 235.968 195.571C235.038 196.116 235.044 196.989 235.981 197.535ZM244.939 202.715L248.44 204.743C249.383 205.289 250.903 205.289 251.839 204.75C252.775 204.21 252.769 203.331 251.826 202.785L248.325 200.757C247.382 200.211 245.862 200.211 244.926 200.751C243.996 201.29 243.996 202.169 244.939 202.715ZM127.689 144.342L130.723 146.094C131.794 146.71 133.525 146.717 134.589 146.1L137.603 144.361C138.668 143.745 138.662 142.743 137.591 142.127L134.557 140.375C133.487 139.759 131.755 139.752 130.691 140.368L127.677 142.108C126.612 142.724 126.619 143.726 127.689 144.342ZM143.362 151.178L146.376 149.438C147.441 148.822 147.434 147.821 146.363 147.205L143.33 145.452C142.259 144.836 140.528 144.83 139.463 145.446L136.449 147.185C135.385 147.801 135.391 148.803 136.462 149.419L139.495 151.171C140.566 151.788 142.298 151.788 143.362 151.178ZM145.235 154.484L148.268 156.236C149.339 156.852 151.07 156.858 152.135 156.242L155.149 154.503C156.213 153.887 156.207 152.885 155.136 152.269L152.103 150.517C151.032 149.9 149.3 149.894 148.236 150.51L145.222 152.25C144.157 152.866 144.164 153.867 145.235 154.484ZM154.007 159.554L157.04 161.307C158.111 161.923 159.843 161.929 160.907 161.313L163.921 159.574C164.986 158.957 164.979 157.956 163.908 157.34L160.875 155.588C159.804 154.971 158.073 154.965 157.008 155.581L153.994 157.321C152.936 157.937 152.936 158.938 154.007 159.554ZM172.687 162.411L169.654 160.658C168.583 160.042 166.852 160.036 165.787 160.652L162.773 162.392C161.709 163.008 161.715 164.009 162.786 164.625L165.819 166.378C166.89 166.994 168.622 167 169.686 166.384L172.7 164.645C173.765 164.028 173.758 163.027 172.687 162.411ZM181.46 167.482L178.427 165.729C177.356 165.113 175.624 165.107 174.56 165.723L171.546 167.462C170.481 168.079 170.488 169.08 171.559 169.696L174.592 171.449C175.663 172.065 177.394 172.071 178.459 171.455L181.473 169.715C182.537 169.099 182.531 168.098 181.46 167.482ZM190.232 172.553L187.199 170.8C186.128 170.184 184.397 170.178 183.332 170.794L180.318 172.533C179.254 173.15 179.26 174.151 180.331 174.767L183.364 176.519C184.435 177.136 186.167 177.142 187.231 176.526L190.245 174.786C191.31 174.17 191.303 173.169 190.232 172.553ZM199.005 177.624L195.972 175.871C194.901 175.255 193.169 175.249 192.105 175.865L189.091 177.604C188.026 178.22 188.033 179.222 189.104 179.838L192.137 181.59C193.208 182.207 194.939 182.213 196.004 181.597L199.018 179.857C200.082 179.241 200.076 178.24 199.005 177.624ZM207.778 182.688L204.744 180.936C203.673 180.319 201.942 180.313 200.877 180.929L197.863 182.669C196.799 183.285 196.805 184.286 197.876 184.903L200.91 186.655C201.98 187.271 203.712 187.277 204.776 186.661L207.79 184.922C208.855 184.312 208.848 183.311 207.778 182.688ZM216.556 187.759L213.523 186.007C212.452 185.39 210.721 185.384 209.656 186L206.642 187.74C205.578 188.356 205.584 189.357 206.655 189.973L209.688 191.726C210.759 192.342 212.491 192.348 213.555 191.732L216.569 189.993C217.627 189.383 217.627 188.382 216.556 187.759ZM215.421 195.044L218.455 196.797C219.526 197.413 221.257 197.419 222.322 196.803L225.335 195.064C226.4 194.447 226.394 193.446 225.323 192.83L222.289 191.077C221.219 190.461 219.487 190.455 218.423 191.071L215.409 192.811C214.351 193.427 214.357 194.428 215.421 195.044ZM234.102 197.901L231.068 196.148C229.997 195.532 228.266 195.526 227.202 196.142L224.188 197.881C223.123 198.498 223.129 199.499 224.2 200.115L227.234 201.868C228.305 202.484 230.036 202.49 231.1 201.874L234.114 200.134C235.179 199.518 235.173 198.523 234.102 197.901ZM246.953 205.327L240.027 201.322C238.956 200.706 237.225 200.699 236.16 201.316L233.146 203.055C232.082 203.671 232.088 204.673 233.159 205.289L240.085 209.294C241.156 209.91 242.887 209.917 243.952 209.301L246.965 207.561C248.03 206.945 248.024 205.944 246.953 205.327ZM119.565 149.04L126.49 153.046C127.561 153.662 129.293 153.668 130.357 153.052L133.371 151.313C134.436 150.696 134.429 149.695 133.358 149.079L126.433 145.073C125.362 144.457 123.63 144.451 122.566 145.067L119.552 146.807C118.487 147.423 118.494 148.424 119.565 149.04ZM132.23 156.364L135.263 158.117C136.334 158.733 138.065 158.739 139.13 158.123L142.144 156.383C143.208 155.767 143.202 154.766 142.131 154.15L139.098 152.397C138.027 151.781 136.295 151.775 135.231 152.391L132.217 154.13C131.152 154.74 131.159 155.742 132.23 156.364ZM144.035 163.187C145.106 163.804 146.838 163.81 147.902 163.194L150.916 161.454C151.981 160.838 151.974 159.837 150.903 159.221L147.87 157.468C146.799 156.852 145.068 156.846 144.003 157.462L140.989 159.201C139.925 159.818 139.931 160.819 141.002 161.435L144.035 163.187ZM152.814 168.258C153.885 168.875 155.617 168.881 156.681 168.265L159.695 166.525C160.76 165.909 160.753 164.908 159.682 164.292L156.649 162.539C155.578 161.923 153.847 161.917 152.782 162.533L149.768 164.272C148.704 164.888 148.71 165.89 149.781 166.506L152.814 168.258ZM161.555 167.597L158.541 169.337C157.476 169.953 157.483 170.954 158.554 171.571L161.587 173.323C162.658 173.939 164.389 173.945 165.454 173.329L168.468 171.59C169.532 170.974 169.526 169.972 168.455 169.356L165.422 167.604C164.351 166.981 162.619 166.981 161.555 167.597ZM170.513 172.559L167.127 174.517C166.166 175.075 166.172 175.974 167.14 176.539L170.545 178.509C171.514 179.068 173.078 179.074 174.04 178.516L177.426 176.558C178.388 176 178.382 175.101 177.413 174.536L174.008 172.565C173.04 172.007 171.475 172.001 170.513 172.559ZM179.286 177.63L175.9 179.588C174.938 180.146 174.945 181.045 175.913 181.61L179.318 183.58C180.286 184.139 181.851 184.145 182.813 183.587L186.199 181.629C187.161 181.07 187.154 180.172 186.186 179.607L182.781 177.636C181.813 177.078 180.248 177.071 179.286 177.63ZM188.059 182.701L184.673 184.659C183.711 185.217 183.717 186.116 184.685 186.681L188.091 188.651C189.059 189.21 190.624 189.216 191.585 188.658L194.971 186.7C195.933 186.141 195.927 185.243 194.959 184.678L191.553 182.707C190.585 182.149 189.02 182.142 188.059 182.701ZM196.831 187.772L193.445 189.729C192.483 190.288 192.49 191.187 193.458 191.751L196.863 193.722C197.831 194.28 199.396 194.287 200.358 193.728L203.744 191.771C204.706 191.212 204.699 190.314 203.731 189.749L200.326 187.778C199.358 187.22 197.793 187.213 196.831 187.772ZM205.61 192.843L202.224 194.8C201.262 195.359 201.269 196.257 202.237 196.822L205.642 198.793C206.61 199.351 208.175 199.358 209.137 198.799L212.523 196.842C213.485 196.283 213.478 195.384 212.51 194.82L209.105 192.849C208.13 192.284 206.572 192.284 205.61 192.843ZM217.91 203.864L221.295 201.906C222.257 201.348 222.251 200.449 221.283 199.884L217.878 197.914C216.909 197.355 215.344 197.349 214.383 197.907L210.997 199.865C210.035 200.423 210.041 201.322 211.01 201.887L214.415 203.857C215.383 204.416 216.948 204.416 217.91 203.864ZM226.682 208.935L230.068 206.977C231.03 206.419 231.024 205.52 230.055 204.955L226.65 202.984C225.682 202.426 224.117 202.42 223.155 202.978L219.769 204.936C218.807 205.494 218.814 206.393 219.782 206.958L223.187 208.928C224.156 209.487 225.72 209.487 226.682 208.935ZM239.014 210.135L235.609 208.164C234.64 207.606 233.076 207.6 232.114 208.158L228.728 210.116C227.766 210.674 227.772 211.573 228.741 212.138L232.146 214.108C233.114 214.667 234.679 214.673 235.641 214.115L239.027 212.157C239.982 211.592 239.982 210.693 239.014 210.135ZM111.247 153.63L122.245 159.984C123.213 160.543 124.778 160.549 125.74 159.991L129.126 158.033C130.088 157.475 130.081 156.576 129.113 156.011L118.115 149.657C117.147 149.098 115.582 149.092 114.62 149.65L111.234 151.608C110.279 152.166 110.279 153.071 111.247 153.63ZM127.619 163.085L131.024 165.055C131.992 165.614 133.557 165.62 134.519 165.062L137.905 163.104C138.867 162.546 138.86 161.647 137.892 161.082L134.487 159.112C133.519 158.553 131.954 158.547 130.992 159.105L127.606 161.063C126.644 161.621 126.651 162.526 127.619 163.085ZM136.391 168.156L139.797 170.126C140.765 170.685 142.33 170.691 143.292 170.133L146.677 168.175C147.639 167.616 147.633 166.718 146.665 166.153L143.259 164.182C142.291 163.624 140.726 163.618 139.765 164.176L136.379 166.134C135.417 166.692 135.423 167.597 136.391 168.156ZM145.164 173.227L148.569 175.197C149.537 175.756 151.102 175.762 152.064 175.204L155.45 173.246C156.412 172.687 156.405 171.789 155.437 171.224L152.032 169.253C151.064 168.695 149.499 168.688 148.537 169.247L145.151 171.205C144.189 171.763 144.196 172.668 145.164 173.227ZM160.837 180.274L164.223 178.317C165.184 177.758 165.178 176.86 164.21 176.295L160.805 174.324C159.836 173.766 158.272 173.759 157.31 174.318L153.924 176.276C152.962 176.834 152.968 177.733 153.937 178.297L157.342 180.268C158.31 180.827 159.875 180.827 160.837 180.274ZM169.609 185.345L172.995 183.388C173.957 182.829 173.951 181.931 172.982 181.366L169.577 179.395C168.609 178.837 167.044 178.83 166.082 179.389L162.696 181.346C161.734 181.905 161.741 182.804 162.709 183.368L166.114 185.339C167.089 185.897 168.647 185.897 169.609 185.345ZM178.388 190.416L181.774 188.459C182.736 187.9 182.73 187.001 181.761 186.437L178.356 184.466C177.388 183.908 175.823 183.901 174.861 184.46L171.475 186.417C170.513 186.976 170.52 187.874 171.488 188.439L174.893 190.41C175.862 190.968 177.426 190.968 178.388 190.416ZM187.161 195.487L190.547 193.529C191.509 192.971 191.502 192.072 190.534 191.507L187.129 189.537C186.16 188.978 184.596 188.972 183.634 189.531L180.248 191.488C179.286 192.047 179.292 192.945 180.261 193.51L183.666 195.481C184.634 196.039 186.199 196.039 187.161 195.487ZM195.933 200.558L199.319 198.6C200.281 198.042 200.275 197.143 199.306 196.578L195.901 194.608C194.933 194.049 193.368 194.043 192.406 194.601L189.02 196.559C188.059 197.118 188.065 198.016 189.033 198.581L192.438 200.552C193.407 201.11 194.971 201.11 195.933 200.558ZM204.706 205.623L208.092 203.665C209.054 203.106 209.047 202.208 208.079 201.643L204.674 199.672C203.705 199.114 202.141 199.107 201.179 199.666L197.793 201.624C196.831 202.182 196.837 203.081 197.806 203.646L201.211 205.616C202.179 206.181 203.744 206.181 204.706 205.623ZM206.578 208.723L209.983 210.693C210.952 211.252 212.516 211.258 213.478 210.7L216.864 208.742C217.826 208.184 217.82 207.285 216.851 206.72L213.446 204.75C212.478 204.191 210.913 204.185 209.951 204.743L206.566 206.701C205.604 207.259 205.61 208.158 206.578 208.723ZM230.882 214.827L222.219 209.821C221.251 209.262 219.686 209.256 218.724 209.814L215.338 211.772C214.376 212.33 214.383 213.229 215.351 213.794L224.014 218.801C224.983 219.359 226.547 219.365 227.509 218.807L230.895 216.849C231.857 216.291 231.851 215.386 230.882 214.827ZM103.154 158.566L118.763 167.584C119.853 168.213 121.623 168.22 122.707 167.591L125.644 165.896C126.728 165.267 126.728 164.247 125.631 163.618L110.022 154.599C108.932 153.97 107.162 153.964 106.079 154.593L103.142 156.287C102.058 156.916 102.064 157.937 103.154 158.566ZM124.586 170.954L127.536 172.662C128.626 173.291 130.396 173.297 131.479 172.668L134.416 170.974C135.5 170.345 135.5 169.324 134.404 168.695L131.454 166.987C130.364 166.358 128.594 166.352 127.51 166.981L124.573 168.676C123.489 169.298 123.496 170.319 124.586 170.954ZM133.358 176.025L136.308 177.733C137.398 178.362 139.168 178.368 140.252 177.739L143.189 176.044C144.273 175.415 144.273 174.395 143.176 173.766L140.226 172.058C139.136 171.429 137.366 171.423 136.282 172.052L133.345 173.747C132.262 174.369 132.268 175.39 133.358 176.025ZM142.131 181.096L145.081 182.804C146.171 183.433 147.941 183.439 149.024 182.81L151.961 181.115C153.045 180.486 153.045 179.466 151.949 178.837L148.999 177.129C147.909 176.5 146.139 176.494 145.055 177.123L142.118 178.817C141.034 179.44 141.041 180.461 142.131 181.096ZM150.91 186.161L153.86 187.868C154.95 188.497 156.72 188.503 157.803 187.874L160.74 186.18C161.824 185.551 161.824 184.53 160.728 183.901L157.778 182.194C156.688 181.565 154.918 181.558 153.834 182.187L150.897 183.882C149.807 184.511 149.813 185.532 150.91 186.161ZM159.682 191.231L162.632 192.939C163.722 193.568 165.492 193.574 166.576 192.945L169.513 191.251C170.597 190.622 170.597 189.601 169.5 188.972L166.55 187.265C165.46 186.636 163.69 186.629 162.607 187.258L159.67 188.953C158.579 189.582 158.586 190.602 159.682 191.231ZM168.455 196.302L171.405 198.01C172.495 198.639 174.265 198.645 175.349 198.016L178.286 196.322C179.369 195.693 179.369 194.672 178.273 194.043L175.323 192.336C174.233 191.706 172.463 191.7 171.379 192.329L168.442 194.024C167.358 194.653 167.358 195.673 168.455 196.302ZM177.227 201.373L180.177 203.081C181.267 203.71 183.037 203.716 184.121 203.087L187.058 201.393C188.142 200.763 188.142 199.743 187.045 199.114L184.095 197.406C183.005 196.777 181.235 196.771 180.152 197.4L177.215 199.095C176.131 199.724 176.137 200.744 177.227 201.373ZM186 206.444L188.95 208.152C190.04 208.781 191.81 208.787 192.894 208.158L195.831 206.463C196.914 205.834 196.914 204.814 195.818 204.185L192.868 202.477C191.778 201.848 190.008 201.842 188.924 202.471L185.987 204.165C184.903 204.795 184.91 205.815 186 206.444ZM194.773 211.515L197.722 213.223C198.813 213.852 200.582 213.858 201.666 213.229L204.603 211.534C205.687 210.905 205.687 209.885 204.59 209.256L201.641 207.548C200.55 206.919 198.781 206.913 197.697 207.542L194.76 209.236C193.676 209.859 193.682 210.886 194.773 211.515ZM203.545 216.586L206.495 218.293C207.585 218.922 209.355 218.929 210.439 218.3L213.376 216.605C214.46 215.976 214.46 214.956 213.363 214.327L210.413 212.619C209.323 211.99 207.553 211.984 206.469 212.613L203.532 214.307C202.449 214.93 202.455 215.951 203.545 216.586ZM222.341 219.507L219.391 217.799C218.301 217.17 216.531 217.164 215.447 217.793L212.51 219.487C211.426 220.116 211.426 221.137 212.523 221.766L215.473 223.473C216.563 224.102 218.333 224.109 219.417 223.48L222.354 221.785C223.437 221.156 223.431 220.136 222.341 219.507ZM108.746 163.252L101.898 159.298C100.807 158.669 99.0375 158.662 97.9538 159.291L95.0168 160.986C93.933 161.615 93.933 162.635 95.0296 163.265L101.878 167.219C102.969 167.848 104.738 167.854 105.822 167.225L108.759 165.53C109.843 164.908 109.837 163.881 108.746 163.252ZM117.519 168.323L114.569 166.615C113.479 165.986 111.709 165.98 110.625 166.609L107.688 168.303C106.605 168.932 106.605 169.953 107.701 170.582L110.651 172.289C111.741 172.918 113.511 172.925 114.595 172.296L117.532 170.601C118.622 169.972 118.615 168.952 117.519 168.323ZM126.291 173.393L123.342 171.686C122.251 171.057 120.482 171.051 119.398 171.68L116.461 173.374C115.377 174.003 115.377 175.024 116.474 175.653L119.423 177.36C120.514 177.989 122.284 177.996 123.367 177.367L126.304 175.672C127.394 175.043 127.388 174.023 126.291 173.393ZM187.706 208.883L132.114 176.757C131.024 176.128 129.254 176.121 128.17 176.751L125.233 178.445C124.15 179.074 124.15 180.095 125.246 180.724L180.838 212.857C181.928 213.486 183.698 213.492 184.782 212.863L187.719 211.168C188.809 210.539 188.802 209.519 187.706 208.883ZM196.485 213.954L193.535 212.247C192.445 211.618 190.675 211.611 189.591 212.24L186.654 213.935C185.57 214.564 185.57 215.585 186.667 216.214L189.617 217.921C190.707 218.55 192.477 218.557 193.561 217.928L196.498 216.233C197.581 215.61 197.575 214.59 196.485 213.954ZM205.257 219.025L202.308 217.318C201.217 216.689 199.447 216.682 198.364 217.311L195.427 219.006C194.343 219.635 194.343 220.656 195.439 221.285L198.389 222.992C199.479 223.621 201.249 223.627 202.333 222.998L205.27 221.304C206.354 220.681 206.347 219.654 205.257 219.025ZM214.209 224.199L211.26 222.491C210.169 221.862 208.4 221.856 207.316 222.485L204.379 224.179C203.295 224.809 203.295 225.829 204.392 226.458L207.341 228.166C208.432 228.795 210.202 228.801 211.285 228.172L214.222 226.477C215.312 225.855 215.306 224.834 214.209 224.199Z" fill="#7CBAC4"/>
<path d="M135.577 138.699L142.977 142.974C143.92 143.52 145.44 143.52 146.376 142.981C147.312 142.441 147.306 141.562 146.363 141.017L138.963 136.742C138.02 136.196 136.5 136.196 135.564 136.735C134.634 137.274 134.641 138.154 135.577 138.699ZM148.249 146.023L151.75 148.052C152.693 148.597 154.212 148.597 155.149 148.058C156.085 147.519 156.078 146.639 155.136 146.094L151.634 144.065C150.692 143.52 149.172 143.52 148.236 144.059C147.299 144.598 147.306 145.478 148.249 146.023ZM157.021 151.088L160.522 153.116C161.465 153.662 162.985 153.662 163.921 153.122C164.857 152.583 164.851 151.704 163.908 151.158L160.401 149.13C159.458 148.584 157.938 148.584 157.002 149.124C156.078 149.669 156.078 150.549 157.021 151.088ZM165.794 156.159L169.301 158.187C170.244 158.733 171.764 158.733 172.7 158.193C173.636 157.654 173.63 156.775 172.687 156.229L169.18 154.201C168.237 153.655 166.717 153.655 165.781 154.194C164.851 154.74 164.851 155.619 165.794 156.159ZM174.566 161.23L178.074 163.258C179.017 163.803 180.536 163.803 181.473 163.264C182.409 162.725 182.403 161.846 181.46 161.3L177.959 159.272C177.016 158.726 175.496 158.726 174.56 159.265C173.624 159.811 173.63 160.69 174.566 161.23ZM183.339 166.3L186.84 168.329C187.783 168.874 189.303 168.874 190.239 168.335C191.175 167.796 191.169 166.917 190.226 166.371L186.725 164.343C185.782 163.797 184.262 163.797 183.326 164.336C182.396 164.882 182.403 165.755 183.339 166.3ZM192.118 171.371L195.625 173.4C196.568 173.945 198.088 173.945 199.024 173.406C199.96 172.867 199.954 171.988 199.011 171.442L195.51 169.414C194.567 168.868 193.048 168.868 192.111 169.407C191.169 169.946 191.175 170.826 192.118 171.371ZM200.89 176.442L204.392 178.471C205.334 179.016 206.854 179.016 207.79 178.477C208.727 177.938 208.72 177.058 207.778 176.513L204.276 174.484C203.334 173.939 201.814 173.939 200.877 174.478C199.941 175.017 199.948 175.897 200.89 176.442ZM209.663 181.513L213.164 183.541C214.107 184.087 215.627 184.087 216.563 183.548C217.499 183.009 217.493 182.129 216.55 181.584L213.049 179.555C212.106 179.01 210.586 179.01 209.65 179.549C208.714 180.088 208.72 180.967 209.663 181.513ZM218.435 186.584L221.943 188.612C222.886 189.158 224.406 189.158 225.342 188.619C226.278 188.08 226.272 187.2 225.329 186.655L221.828 184.626C220.885 184.081 219.365 184.081 218.429 184.62C217.493 185.159 217.493 186.038 218.435 186.584ZM227.208 191.655L230.709 193.683C231.652 194.229 233.172 194.229 234.108 193.69C235.044 193.15 235.038 192.271 234.095 191.726L230.587 189.697C229.645 189.152 228.125 189.152 227.189 189.691C226.265 190.23 226.272 191.109 227.208 191.655ZM235.981 196.726L239.482 198.754C240.425 199.3 241.944 199.3 242.881 198.761C243.817 198.221 243.81 197.342 242.868 196.796L239.366 194.768C238.424 194.222 236.904 194.222 235.968 194.762C235.038 195.301 235.044 196.18 235.981 196.726ZM244.939 201.899L248.44 203.928C249.383 204.473 250.903 204.473 251.839 203.934C252.775 203.395 252.769 202.516 251.826 201.97L248.325 199.942C247.382 199.396 245.862 199.396 244.926 199.935C243.996 200.474 243.996 201.354 244.939 201.899ZM127.689 143.533L130.723 145.285C131.794 145.901 133.525 145.908 134.589 145.291L137.603 143.552C138.668 142.936 138.662 141.934 137.591 141.318L134.557 139.566C133.487 138.95 131.755 138.943 130.691 139.559L127.677 141.299C126.612 141.915 126.619 142.91 127.689 143.533ZM143.362 150.362L146.376 148.623C147.441 148.007 147.434 147.005 146.363 146.389L143.33 144.637C142.259 144.021 140.528 144.014 139.463 144.63L136.449 146.37C135.385 146.986 135.391 147.987 136.462 148.604L139.495 150.356C140.566 150.972 142.298 150.979 143.362 150.362ZM145.235 153.675L148.268 155.427C149.339 156.043 151.07 156.049 152.135 155.433L155.149 153.694C156.213 153.078 156.207 152.076 155.136 151.46L152.103 149.708C151.032 149.091 149.3 149.085 148.236 149.701L145.222 151.441C144.157 152.051 144.164 153.052 145.235 153.675ZM154.007 158.745L157.04 160.498C158.111 161.114 159.843 161.12 160.907 160.504L163.921 158.765C164.986 158.148 164.979 157.147 163.908 156.531L160.875 154.779C159.804 154.162 158.073 154.156 157.008 154.772L153.994 156.512C152.936 157.121 152.936 158.123 154.007 158.745ZM172.687 161.595L169.654 159.843C168.583 159.227 166.852 159.22 165.787 159.837L162.773 161.576C161.709 162.192 161.715 163.194 162.786 163.81L165.819 165.562C166.89 166.178 168.622 166.185 169.686 165.569L172.7 163.829C173.765 163.213 173.758 162.218 172.687 161.595ZM181.46 166.666L178.427 164.914C177.356 164.298 175.624 164.291 174.56 164.908L171.546 166.647C170.481 167.263 170.488 168.265 171.559 168.881L174.592 170.633C175.663 171.249 177.394 171.256 178.459 170.64L181.473 168.9C182.537 168.284 182.531 167.289 181.46 166.666ZM190.232 171.737L187.199 169.985C186.128 169.369 184.397 169.362 183.332 169.978L180.318 171.718C179.254 172.334 179.26 173.335 180.331 173.952L183.364 175.704C184.435 176.32 186.167 176.327 187.231 175.71L190.245 173.971C191.31 173.355 191.303 172.353 190.232 171.737ZM199.005 176.808L195.972 175.056C194.901 174.44 193.169 174.433 192.105 175.049L189.091 176.789C188.026 177.405 188.033 178.406 189.104 179.023L192.137 180.775C193.208 181.391 194.939 181.398 196.004 180.781L199.018 179.042C200.082 178.426 200.076 177.424 199.005 176.808ZM207.778 181.879L204.744 180.127C203.673 179.51 201.942 179.504 200.877 180.12L197.863 181.86C196.799 182.476 196.805 183.477 197.876 184.093L200.91 185.846C201.98 186.462 203.712 186.468 204.776 185.852L207.79 184.113C208.855 183.497 208.848 182.495 207.778 181.879ZM216.556 186.95L213.523 185.198C212.452 184.581 210.721 184.575 209.656 185.191L206.642 186.931C205.578 187.547 205.584 188.548 206.655 189.164L209.688 190.917C210.759 191.533 212.491 191.539 213.555 190.923L216.569 189.184C217.627 188.567 217.627 187.566 216.556 186.95ZM215.421 194.235L218.455 195.988C219.526 196.604 221.257 196.61 222.322 195.994L225.335 194.255C226.4 193.638 226.394 192.637 225.323 192.021L222.289 190.268C221.219 189.652 219.487 189.646 218.423 190.262L215.409 192.002C214.351 192.618 214.357 193.619 215.421 194.235ZM234.102 197.092L231.068 195.339C229.997 194.723 228.266 194.717 227.202 195.333L224.188 197.072C223.123 197.689 223.129 198.69 224.2 199.306L227.234 201.059C228.305 201.675 230.036 201.681 231.1 201.065L234.114 199.325C235.179 198.709 235.173 197.708 234.102 197.092ZM246.953 204.512L240.027 200.507C238.956 199.89 237.225 199.884 236.16 200.5L233.146 202.24C232.082 202.856 232.088 203.857 233.159 204.473L240.085 208.479C241.156 209.095 242.887 209.101 243.952 208.485L246.965 206.746C248.03 206.136 248.024 205.135 246.953 204.512ZM119.565 148.225L126.49 152.23C127.561 152.846 129.293 152.853 130.357 152.237L133.371 150.497C134.436 149.881 134.429 148.88 133.358 148.263L126.433 144.258C125.362 143.642 123.63 143.635 122.566 144.252L119.552 145.991C118.487 146.607 118.494 147.609 119.565 148.225ZM132.23 155.549L135.263 157.301C136.334 157.917 138.065 157.924 139.13 157.308L142.144 155.568C143.208 154.952 143.202 153.951 142.131 153.334L139.098 151.582C138.027 150.966 136.295 150.959 135.231 151.576L132.217 153.315C131.152 153.931 131.159 154.933 132.23 155.549ZM144.035 162.372C145.106 162.988 146.838 162.995 147.902 162.378L150.916 160.639C151.981 160.023 151.974 159.021 150.903 158.405L147.87 156.653C146.799 156.037 145.068 156.03 144.003 156.646L140.989 158.386C139.925 159.002 139.931 160.003 141.002 160.62L144.035 162.372ZM152.814 167.443C153.885 168.059 155.617 168.066 156.681 167.449L159.695 165.71C160.76 165.094 160.753 164.092 159.682 163.476L156.649 161.724C155.578 161.108 153.847 161.101 152.782 161.717L149.768 163.457C148.704 164.073 148.71 165.074 149.781 165.691L152.814 167.443ZM161.555 166.782L158.541 168.521C157.476 169.138 157.483 170.139 158.554 170.755L161.587 172.507C162.658 173.124 164.389 173.13 165.454 172.514L168.468 170.774C169.532 170.158 169.526 169.157 168.455 168.541L165.422 166.788C164.351 166.172 162.619 166.166 161.555 166.782ZM170.513 171.744L167.127 173.701C166.166 174.26 166.172 175.158 167.14 175.723L170.545 177.694C171.514 178.252 173.078 178.259 174.04 177.7L177.426 175.743C178.388 175.184 178.382 174.285 177.413 173.721L174.008 171.75C173.04 171.192 171.475 171.192 170.513 171.744ZM179.286 176.814L175.9 178.772C174.938 179.331 174.945 180.229 175.913 180.794L179.318 182.765C180.286 183.323 181.851 183.33 182.813 182.771L186.199 180.813C187.161 180.255 187.154 179.356 186.186 178.792L182.781 176.821C181.813 176.262 180.248 176.262 179.286 176.814ZM188.059 181.885L184.673 183.843C183.711 184.402 183.717 185.3 184.685 185.865L188.091 187.836C189.059 188.394 190.624 188.401 191.585 187.842L194.971 185.884C195.933 185.326 195.927 184.427 194.959 183.862L191.553 181.892C190.585 181.333 189.02 181.333 188.059 181.885ZM196.831 186.956L193.445 188.914C192.483 189.472 192.49 190.371 193.458 190.936L196.863 192.907C197.831 193.465 199.396 193.471 200.358 192.913L203.744 190.955C204.706 190.397 204.699 189.498 203.731 188.933L200.326 186.963C199.358 186.404 197.793 186.404 196.831 186.956ZM205.61 192.027L202.224 193.985C201.262 194.543 201.269 195.442 202.237 196.007L205.642 197.977C206.61 198.536 208.175 198.542 209.137 197.984L212.523 196.026C213.485 195.468 213.478 194.569 212.51 194.004L209.105 192.034C208.13 191.475 206.572 191.469 205.61 192.027ZM217.91 203.048L221.295 201.091C222.257 200.532 222.251 199.634 221.283 199.069L217.878 197.098C216.909 196.54 215.344 196.533 214.383 197.092L210.997 199.049C210.035 199.608 210.041 200.507 211.01 201.071L214.415 203.042C215.383 203.6 216.948 203.607 217.91 203.048ZM226.682 208.119L230.068 206.162C231.03 205.603 231.024 204.704 230.055 204.14L226.65 202.169C225.682 201.611 224.117 201.604 223.155 202.163L219.769 204.12C218.807 204.679 218.814 205.577 219.782 206.142L223.187 208.113C224.156 208.671 225.72 208.678 226.682 208.119ZM239.014 209.32L235.609 207.349C234.64 206.791 233.076 206.784 232.114 207.343L228.728 209.3C227.766 209.859 227.772 210.757 228.741 211.322L232.146 213.293C233.114 213.851 234.679 213.858 235.641 213.299L239.027 211.342C239.982 210.783 239.982 209.878 239.014 209.32ZM111.247 152.814L122.245 159.169C123.213 159.727 124.778 159.734 125.74 159.175L129.126 157.218C130.088 156.659 130.081 155.761 129.113 155.196L118.115 148.841C117.147 148.283 115.582 148.276 114.62 148.835L111.234 150.792C110.279 151.351 110.279 152.256 111.247 152.814ZM127.619 162.276L131.024 164.246C131.992 164.805 133.557 164.811 134.519 164.253L137.905 162.295C138.867 161.737 138.86 160.838 137.892 160.273L134.487 158.303C133.519 157.744 131.954 157.738 130.992 158.296L127.606 160.254C126.644 160.812 126.651 161.717 127.619 162.276ZM136.391 167.347L139.797 169.317C140.765 169.876 142.33 169.882 143.292 169.324L146.677 167.366C147.639 166.807 147.633 165.909 146.665 165.344L143.259 163.373C142.291 162.815 140.726 162.809 139.765 163.367L136.379 165.325C135.417 165.883 135.423 166.788 136.391 167.347ZM145.164 172.418L148.569 174.388C149.537 174.947 151.102 174.953 152.064 174.395L155.45 172.437C156.412 171.878 156.405 170.98 155.437 170.415L152.032 168.444C151.064 167.886 149.499 167.879 148.537 168.438L145.151 170.396C144.189 170.954 144.196 171.859 145.164 172.418ZM160.837 179.459L164.223 177.501C165.184 176.943 165.178 176.044 164.21 175.479L160.805 173.509C159.836 172.95 158.272 172.944 157.31 173.502L153.924 175.46C152.962 176.019 152.968 176.917 153.937 177.482L157.342 179.453C158.31 180.011 159.875 180.018 160.837 179.459ZM169.609 184.53L172.995 182.572C173.957 182.014 173.951 181.115 172.982 180.55L169.577 178.58C168.609 178.021 167.044 178.015 166.082 178.573L162.696 180.531C161.734 181.089 161.741 181.988 162.709 182.553L166.114 184.524C167.089 185.082 168.647 185.088 169.609 184.53ZM178.388 189.601L181.774 187.643C182.736 187.085 182.73 186.186 181.761 185.621L178.356 183.651C177.388 183.092 175.823 183.086 174.861 183.644L171.475 185.602C170.513 186.16 170.52 187.059 171.488 187.624L174.893 189.594C175.862 190.153 177.426 190.159 178.388 189.601ZM187.161 194.672L190.547 192.714C191.509 192.156 191.502 191.257 190.534 190.692L187.129 188.721C186.16 188.163 184.596 188.157 183.634 188.715L180.248 190.673C179.286 191.231 179.292 192.13 180.261 192.695L183.666 194.665C184.634 195.224 186.199 195.23 187.161 194.672ZM195.933 199.743L199.319 197.785C200.281 197.226 200.275 196.328 199.306 195.763L195.901 193.792C194.933 193.234 193.368 193.228 192.406 193.786L189.02 195.744C188.059 196.302 188.065 197.201 189.033 197.766L192.438 199.736C193.407 200.295 194.971 200.301 195.933 199.743ZM204.706 204.814L208.092 202.856C209.054 202.297 209.047 201.399 208.079 200.834L204.674 198.863C203.705 198.305 202.141 198.298 201.179 198.857L197.793 200.815C196.831 201.373 196.837 202.272 197.806 202.837L201.211 204.807C202.179 205.366 203.744 205.366 204.706 204.814ZM206.578 207.907L209.983 209.878C210.952 210.436 212.516 210.443 213.478 209.884L216.864 207.927C217.826 207.368 217.82 206.47 216.851 205.905L213.446 203.934C212.478 203.376 210.913 203.369 209.951 203.928L206.566 205.886C205.604 206.444 205.61 207.349 206.578 207.907ZM230.882 214.018L222.219 209.012C221.251 208.453 219.686 208.447 218.724 209.005L215.338 210.963C214.376 211.521 214.383 212.42 215.351 212.985L224.014 217.991C224.983 218.55 226.547 218.556 227.509 217.998L230.895 216.04C231.857 215.475 231.851 214.577 230.882 214.018ZM103.154 157.757L118.763 166.775C119.853 167.404 121.623 167.411 122.707 166.782L125.644 165.087C126.728 164.458 126.728 163.438 125.631 162.809L110.022 153.79C108.932 153.161 107.162 153.155 106.079 153.784L103.142 155.478C102.058 156.101 102.064 157.121 103.154 157.757ZM124.586 170.139L127.536 171.846C128.626 172.475 130.396 172.482 131.479 171.853L134.416 170.158C135.5 169.529 135.5 168.508 134.404 167.879L131.454 166.172C130.364 165.543 128.594 165.537 127.51 166.166L124.573 167.86C123.489 168.489 123.496 169.51 124.586 170.139ZM133.358 175.21L136.308 176.917C137.398 177.546 139.168 177.553 140.252 176.924L143.189 175.229C144.273 174.6 144.273 173.579 143.176 172.95L140.226 171.243C139.136 170.614 137.366 170.607 136.282 171.237L133.345 172.931C132.262 173.56 132.268 174.581 133.358 175.21ZM142.131 180.281L145.081 181.988C146.171 182.617 147.941 182.624 149.024 181.995L151.961 180.3C153.045 179.671 153.045 178.65 151.949 178.021L148.999 176.314C147.909 175.685 146.139 175.678 145.055 176.307L142.118 178.002C141.034 178.625 141.041 179.645 142.131 180.281ZM150.91 185.352L153.86 187.059C154.95 187.688 156.72 187.694 157.803 187.065L160.74 185.371C161.824 184.742 161.824 183.721 160.728 183.092L157.778 181.385C156.688 180.756 154.918 180.749 153.834 181.378L150.897 183.073C149.807 183.696 149.813 184.716 150.91 185.352ZM159.682 190.422L162.632 192.13C163.722 192.759 165.492 192.765 166.576 192.136L169.513 190.442C170.597 189.813 170.597 188.792 169.5 188.163L166.55 186.456C165.46 185.827 163.69 185.82 162.607 186.449L159.67 188.144C158.579 188.766 158.586 189.787 159.682 190.422ZM168.455 195.493L171.405 197.201C172.495 197.83 174.265 197.836 175.349 197.207L178.286 195.513C179.369 194.884 179.369 193.863 178.273 193.234L175.323 191.527C174.233 190.897 172.463 190.891 171.379 191.52L168.442 193.215C167.358 193.837 167.358 194.858 168.455 195.493ZM177.227 200.564L180.177 202.272C181.267 202.901 183.037 202.907 184.121 202.278L187.058 200.584C188.142 199.954 188.142 198.934 187.045 198.305L184.095 196.597C183.005 195.968 181.235 195.962 180.152 196.591L177.215 198.286C176.131 198.908 176.137 199.929 177.227 200.564ZM186 205.629L188.95 207.336C190.04 207.965 191.81 207.972 192.894 207.343L195.831 205.648C196.914 205.019 196.914 203.998 195.818 203.369L192.868 201.662C191.778 201.033 190.008 201.026 188.924 201.655L185.987 203.35C184.903 203.979 184.91 205 186 205.629ZM194.773 210.7L197.722 212.407C198.813 213.036 200.582 213.043 201.666 212.413L204.603 210.719C205.687 210.09 205.687 209.069 204.59 208.44L201.641 206.733C200.55 206.104 198.781 206.097 197.697 206.726L194.76 208.421C193.676 209.05 193.682 210.071 194.773 210.7ZM203.545 215.771L206.495 217.478C207.585 218.107 209.355 218.113 210.439 217.484L213.376 215.79C214.46 215.161 214.46 214.14 213.363 213.511L210.413 211.804C209.323 211.175 207.553 211.168 206.469 211.797L203.532 213.492C202.449 214.121 202.455 215.142 203.545 215.771ZM222.341 218.691L219.391 216.984C218.301 216.355 216.531 216.348 215.447 216.977L212.51 218.672C211.426 219.301 211.426 220.322 212.523 220.951L215.473 222.658C216.563 223.287 218.333 223.293 219.417 222.664L222.354 220.97C223.437 220.347 223.431 219.327 222.341 218.691ZM108.746 162.436L101.898 158.482C100.807 157.853 99.0375 157.847 97.9538 158.476L95.0168 160.17C93.933 160.799 93.933 161.82 95.0296 162.449L101.878 166.403C102.969 167.032 104.738 167.039 105.822 166.41L108.759 164.715C109.843 164.092 109.837 163.072 108.746 162.436ZM117.519 167.507L114.569 165.8C113.479 165.171 111.709 165.164 110.625 165.793L107.688 167.488C106.605 168.117 106.605 169.138 107.701 169.767L110.651 171.474C111.741 172.103 113.511 172.109 114.595 171.48L117.532 169.786C118.622 169.163 118.615 168.143 117.519 167.507ZM126.291 172.578L123.342 170.871C122.251 170.242 120.482 170.235 119.398 170.864L116.461 172.559C115.377 173.188 115.377 174.208 116.474 174.837L119.423 176.545C120.514 177.174 122.284 177.18 123.367 176.551L126.304 174.857C127.394 174.234 127.388 173.214 126.291 172.578ZM187.706 208.074L132.114 175.948C131.024 175.319 129.254 175.312 128.17 175.942L125.233 177.636C124.15 178.265 124.15 179.286 125.246 179.915L180.838 212.041C181.928 212.67 183.698 212.677 184.782 212.048L187.719 210.353C188.809 209.724 188.802 208.703 187.706 208.074ZM196.485 213.145L193.535 211.438C192.445 210.809 190.675 210.802 189.591 211.431L186.654 213.126C185.57 213.755 185.57 214.776 186.667 215.405L189.617 217.112C190.707 217.741 192.477 217.748 193.561 217.119L196.498 215.424C197.581 214.795 197.575 213.774 196.485 213.145ZM205.257 218.21L202.308 216.502C201.217 215.873 199.447 215.867 198.364 216.496L195.427 218.19C194.343 218.82 194.343 219.84 195.439 220.469L198.389 222.177C199.479 222.806 201.249 222.812 202.333 222.183L205.27 220.488C206.354 219.866 206.347 218.845 205.257 218.21ZM214.209 223.39L211.26 221.682C210.169 221.053 208.4 221.047 207.316 221.676L204.379 223.37C203.295 224 203.295 225.02 204.392 225.649L207.341 227.357C208.432 227.986 210.202 227.992 211.285 227.363L214.222 225.668C215.312 225.039 215.306 224.019 214.209 223.39Z" fill="url(#paint7_linear)"/>
<path d="M142.131 180.281L145.081 181.988C146.171 182.617 147.941 182.624 149.024 181.995L151.961 180.3C152.577 179.941 152.834 179.459 152.744 178.991C152.68 179.337 152.423 179.677 151.961 179.947L149.024 181.642C147.941 182.271 146.171 182.264 145.081 181.635L142.131 179.928C141.663 179.658 141.406 179.312 141.336 178.958C141.252 179.427 141.509 179.915 142.131 180.281Z" fill="white"/>
<path d="M150.91 185.352L153.86 187.059C154.95 187.688 156.72 187.694 157.803 187.065L160.74 185.371C161.356 185.011 161.613 184.53 161.523 184.061C161.459 184.408 161.202 184.748 160.74 185.018L157.803 186.712C156.72 187.341 154.95 187.335 153.86 186.706L150.91 184.999C150.442 184.729 150.185 184.382 150.115 184.029C150.025 184.498 150.281 184.986 150.91 185.352Z" fill="white"/>
<path d="M159.682 190.422L162.632 192.13C163.722 192.759 165.492 192.765 166.576 192.136L169.513 190.442C170.128 190.082 170.385 189.601 170.295 189.132C170.231 189.479 169.975 189.819 169.513 190.089L166.576 191.783C165.492 192.412 163.722 192.406 162.632 191.777L159.682 190.069C159.214 189.8 158.958 189.453 158.887 189.1C158.797 189.569 159.054 190.057 159.682 190.422Z" fill="white"/>
<path d="M182.46 186.469C182.396 186.77 182.172 187.066 181.774 187.297L178.388 189.254C177.426 189.813 175.862 189.806 174.893 189.248L171.488 187.277C171.078 187.04 170.853 186.745 170.789 186.437C170.699 186.86 170.924 187.303 171.488 187.63L174.893 189.601C175.862 190.159 177.426 190.166 178.388 189.607L181.774 187.65C182.326 187.322 182.55 186.886 182.46 186.469Z" fill="white"/>
<path d="M145.164 172.418L148.569 174.388C149.537 174.947 151.102 174.953 152.064 174.395L155.45 172.437C156.008 172.116 156.226 171.679 156.136 171.256C156.072 171.557 155.847 171.853 155.45 172.084L152.064 174.042C151.102 174.6 149.537 174.594 148.569 174.035L145.164 172.065C144.754 171.827 144.529 171.532 144.465 171.224C144.375 171.647 144.6 172.09 145.164 172.418Z" fill="white"/>
<path d="M153.937 177.488L157.342 179.459C158.31 180.017 159.875 180.024 160.837 179.465L164.223 177.508C164.78 177.187 164.999 176.75 164.909 176.327C164.845 176.628 164.62 176.923 164.223 177.155L160.837 179.112C159.875 179.671 158.31 179.664 157.342 179.106L153.937 177.135C153.526 176.898 153.302 176.603 153.238 176.294C153.148 176.718 153.372 177.161 153.937 177.488Z" fill="white"/>
<path d="M173.688 181.398C173.623 181.699 173.399 181.995 173.001 182.226L169.616 184.184C168.654 184.742 167.089 184.736 166.121 184.177L162.715 182.207C162.305 181.969 162.081 181.674 162.016 181.366C161.927 181.789 162.151 182.232 162.715 182.56L166.121 184.53C167.089 185.089 168.654 185.095 169.616 184.537L173.001 182.579C173.553 182.252 173.777 181.815 173.688 181.398Z" fill="white"/>
<path d="M168.455 195.494L171.405 197.201C172.495 197.83 174.265 197.837 175.349 197.208L178.286 195.513C178.901 195.153 179.158 194.672 179.068 194.203C179.004 194.55 178.747 194.89 178.286 195.16L175.349 196.854C174.265 197.484 172.495 197.477 171.405 196.848L168.455 195.141C167.987 194.871 167.73 194.524 167.66 194.171C167.57 194.64 167.826 195.128 168.455 195.494Z" fill="white"/>
<path d="M191.233 191.533C191.169 191.835 190.944 192.13 190.547 192.361L187.161 194.319C186.199 194.877 184.634 194.871 183.666 194.312L180.261 192.342C179.85 192.104 179.626 191.809 179.562 191.501C179.472 191.925 179.696 192.368 180.261 192.695L183.666 194.665C184.634 195.224 186.199 195.23 187.161 194.672L190.547 192.714C191.098 192.393 191.323 191.957 191.233 191.533Z" fill="white"/>
<path d="M192.9 207.343L195.837 205.648C196.453 205.289 196.709 204.807 196.619 204.339C196.555 204.685 196.299 205.026 195.837 205.295L192.9 206.99C191.816 207.619 190.046 207.612 188.956 206.983L186.006 205.276C185.538 205.006 185.282 204.66 185.211 204.307C185.121 204.775 185.378 205.269 186.006 205.629L188.956 207.336C190.046 207.972 191.816 207.972 192.9 207.343Z" fill="white"/>
<path d="M208.778 201.675C208.714 201.976 208.489 202.272 208.092 202.503L204.706 204.46C203.744 205.019 202.179 205.012 201.211 204.454L197.806 202.483C197.395 202.246 197.171 201.951 197.107 201.643C197.017 202.066 197.241 202.509 197.806 202.836L201.211 204.807C202.179 205.366 203.744 205.372 204.706 204.813L208.092 202.856C208.65 202.535 208.868 202.098 208.778 201.675Z" fill="white"/>
<path d="M133.358 175.21L136.308 176.917C137.398 177.546 139.168 177.553 140.252 176.924L143.189 175.229C143.805 174.87 144.061 174.388 143.971 173.92C143.907 174.266 143.651 174.607 143.189 174.876L140.252 176.571C139.168 177.2 137.398 177.193 136.308 176.564L133.358 174.857C132.89 174.587 132.634 174.241 132.563 173.888C132.473 174.356 132.73 174.851 133.358 175.21Z" fill="white"/>
<path d="M136.392 167.347L139.797 169.317C140.765 169.876 142.33 169.882 143.292 169.324L146.678 167.366C147.235 167.045 147.453 166.609 147.364 166.185C147.3 166.487 147.075 166.782 146.678 167.013L143.292 168.971C142.33 169.529 140.765 169.523 139.797 168.964L136.392 166.994C135.981 166.756 135.757 166.461 135.693 166.153C135.596 166.576 135.827 167.019 136.392 167.347Z" fill="white"/>
<path d="M177.227 200.564L180.177 202.272C181.267 202.901 183.037 202.907 184.121 202.278L187.058 200.584C187.674 200.224 187.93 199.743 187.84 199.274C187.776 199.621 187.52 199.961 187.058 200.231L184.121 201.925C183.037 202.554 181.267 202.548 180.177 201.919L177.227 200.211C176.759 199.942 176.503 199.595 176.432 199.242C176.342 199.711 176.599 200.199 177.227 200.564Z" fill="white"/>
<path d="M200.005 196.604C199.941 196.906 199.717 197.201 199.319 197.432L195.933 199.39C194.971 199.948 193.407 199.942 192.438 199.383L189.033 197.413C188.623 197.175 188.398 196.88 188.334 196.572C188.245 196.995 188.469 197.438 189.033 197.766L192.438 199.736C193.407 200.295 194.971 200.301 195.933 199.743L199.319 197.785C199.877 197.464 200.095 197.028 200.005 196.604Z" fill="white"/>
<path d="M141.002 160.62L144.035 162.372C145.106 162.988 146.838 162.995 147.902 162.379L150.916 160.639C151.525 160.286 151.769 159.811 151.679 159.355C151.615 159.696 151.365 160.029 150.916 160.286L147.902 162.026C146.838 162.642 145.106 162.635 144.035 162.019L141.002 160.267C140.54 160.004 140.29 159.664 140.226 159.317C140.136 159.779 140.387 160.26 141.002 160.62Z" fill="white"/>
<path d="M181.473 168.547L178.459 170.286C177.394 170.903 175.663 170.896 174.592 170.28L171.559 168.528C171.097 168.264 170.847 167.924 170.783 167.578C170.693 168.04 170.943 168.521 171.559 168.881L174.592 170.633C175.663 171.249 177.394 171.256 178.459 170.639L181.473 168.9C182.082 168.547 182.325 168.072 182.236 167.616C182.172 167.956 181.921 168.284 181.473 168.547Z" fill="white"/>
<path d="M221.982 199.916C221.918 200.218 221.693 200.513 221.296 200.744L217.91 202.702C216.948 203.26 215.383 203.254 214.415 202.695L211.01 200.725C210.599 200.487 210.375 200.192 210.311 199.884C210.221 200.307 210.445 200.75 211.01 201.078L214.415 203.048C215.383 203.607 216.948 203.613 217.91 203.055L221.296 201.097C221.847 200.77 222.072 200.333 221.982 199.916Z" fill="white"/>
<path d="M203.744 190.596L200.358 192.554C199.396 193.112 197.831 193.106 196.863 192.547L193.458 190.577C193.047 190.339 192.823 190.044 192.759 189.736C192.669 190.159 192.894 190.602 193.458 190.93L196.863 192.9C197.831 193.459 199.396 193.465 200.358 192.907L203.744 190.949C204.302 190.628 204.52 190.192 204.43 189.768C204.366 190.076 204.148 190.365 203.744 190.596Z" fill="white"/>
<path d="M172.7 163.476L169.686 165.216C168.622 165.832 166.89 165.825 165.819 165.209L162.786 163.457C162.324 163.194 162.074 162.853 162.01 162.507C161.92 162.969 162.17 163.45 162.786 163.81L165.819 165.562C166.89 166.178 168.622 166.185 169.686 165.569L172.7 163.829C173.309 163.476 173.553 163.001 173.463 162.545C173.399 162.886 173.149 163.219 172.7 163.476Z" fill="white"/>
<path d="M199.018 178.689L196.004 180.429C194.939 181.045 193.208 181.038 192.137 180.422L189.104 178.67C188.642 178.407 188.392 178.066 188.328 177.72C188.238 178.182 188.488 178.663 189.104 179.023L192.137 180.775C193.208 181.391 194.939 181.398 196.004 180.782L199.018 179.042C199.627 178.689 199.871 178.214 199.781 177.758C199.717 178.098 199.473 178.426 199.018 178.689Z" fill="white"/>
<path d="M207.79 183.76L204.776 185.499C203.712 186.116 201.98 186.109 200.909 185.493L197.876 183.741C197.414 183.477 197.164 183.137 197.1 182.791C197.01 183.253 197.261 183.734 197.876 184.094L200.909 185.846C201.98 186.462 203.712 186.469 204.776 185.852L207.79 184.113C208.399 183.76 208.643 183.285 208.553 182.829C208.489 183.169 208.246 183.497 207.79 183.76Z" fill="white"/>
<path d="M136.462 148.604L139.495 150.356C140.566 150.972 142.298 150.979 143.362 150.363L146.376 148.623C146.985 148.27 147.229 147.795 147.139 147.339C147.075 147.679 146.825 148.013 146.376 148.27L143.362 150.01C142.298 150.626 140.566 150.619 139.495 150.003L136.462 148.251C136 147.988 135.75 147.647 135.686 147.301C135.596 147.763 135.847 148.244 136.462 148.604Z" fill="white"/>
<path d="M155.149 153.334L152.135 155.074C151.07 155.69 149.339 155.684 148.268 155.068L145.235 153.315C144.773 153.052 144.523 152.712 144.459 152.365C144.369 152.827 144.619 153.309 145.235 153.668L148.268 155.421C149.339 156.037 151.07 156.043 152.135 155.427L155.149 153.688C155.758 153.334 156.001 152.859 155.912 152.404C155.848 152.744 155.604 153.078 155.149 153.334Z" fill="white"/>
<path d="M163.928 158.405L160.914 160.145C159.849 160.761 158.118 160.755 157.047 160.138L154.014 158.386C153.552 158.123 153.302 157.783 153.238 157.436C153.148 157.898 153.398 158.38 154.014 158.739L157.047 160.491C158.118 161.108 159.849 161.114 160.914 160.498L163.928 158.758C164.537 158.405 164.78 157.93 164.691 157.475C164.62 157.815 164.376 158.149 163.928 158.405Z" fill="white"/>
<path d="M190.245 173.618L187.231 175.358C186.167 175.974 184.435 175.968 183.364 175.351L180.331 173.599C179.87 173.336 179.619 172.996 179.555 172.649C179.466 173.111 179.716 173.593 180.331 173.952L183.364 175.704C184.435 176.321 186.167 176.327 187.231 175.711L190.245 173.971C190.854 173.618 191.098 173.143 191.008 172.687C190.944 173.028 190.694 173.355 190.245 173.618Z" fill="white"/>
<path d="M186.199 180.461L182.813 182.418C181.851 182.977 180.286 182.97 179.318 182.412L175.913 180.441C175.503 180.204 175.278 179.909 175.214 179.601C175.124 180.024 175.349 180.467 175.913 180.794L179.318 182.765C180.286 183.324 181.851 183.33 182.813 182.772L186.199 180.814C186.757 180.493 186.975 180.056 186.885 179.633C186.821 179.934 186.596 180.23 186.199 180.461Z" fill="white"/>
<path d="M168.468 170.421L165.454 172.161C164.389 172.777 162.658 172.771 161.587 172.154L158.554 170.402C158.092 170.139 157.842 169.799 157.778 169.452C157.688 169.914 157.938 170.396 158.554 170.755L161.587 172.508C162.658 173.124 164.389 173.13 165.454 172.514L168.468 170.774C169.077 170.421 169.321 169.946 169.231 169.491C169.167 169.831 168.917 170.165 168.468 170.421Z" fill="white"/>
<path d="M177.426 175.389L174.04 177.347C173.078 177.906 171.514 177.899 170.545 177.341L167.14 175.37C166.73 175.133 166.505 174.837 166.441 174.529C166.352 174.953 166.576 175.396 167.14 175.723L170.545 177.694C171.514 178.252 173.078 178.259 174.04 177.7L177.426 175.742C177.984 175.422 178.202 174.985 178.112 174.561C178.048 174.863 177.824 175.158 177.426 175.389Z" fill="white"/>
<path d="M194.971 185.525L191.585 187.483C190.624 188.041 189.059 188.035 188.091 187.476L184.685 185.506C184.275 185.268 184.051 184.973 183.986 184.665C183.897 185.089 184.121 185.532 184.685 185.859L188.091 187.83C189.059 188.388 190.624 188.394 191.585 187.836L194.971 185.878C195.529 185.557 195.747 185.121 195.658 184.697C195.593 185.005 195.369 185.294 194.971 185.525Z" fill="white"/>
<path d="M205.392 209.41C205.328 209.756 205.071 210.096 204.61 210.366L201.673 212.061C200.589 212.69 198.819 212.683 197.729 212.054L194.779 210.347C194.311 210.077 194.054 209.73 193.984 209.377C193.894 209.846 194.15 210.34 194.779 210.7L197.729 212.407C198.819 213.036 200.589 213.043 201.673 212.414L204.61 210.719C205.225 210.36 205.482 209.878 205.392 209.41Z" fill="white"/>
<path d="M225.342 193.902L222.328 195.641C221.263 196.258 219.532 196.251 218.461 195.635L215.428 193.883C214.966 193.619 214.716 193.279 214.652 192.933C214.562 193.395 214.812 193.876 215.428 194.236L218.461 195.988C219.532 196.604 221.263 196.611 222.328 195.994L225.342 194.255C225.951 193.902 226.195 193.427 226.105 192.971C226.041 193.305 225.791 193.639 225.342 193.902Z" fill="white"/>
<path d="M149.775 165.691L152.808 167.443C153.879 168.059 155.61 168.066 156.675 167.45L159.689 165.71C160.298 165.357 160.542 164.882 160.452 164.426C160.388 164.766 160.138 165.1 159.689 165.357L156.675 167.096C155.61 167.713 153.879 167.706 152.808 167.09L149.775 165.338C149.313 165.075 149.063 164.734 148.999 164.388C148.909 164.85 149.159 165.331 149.775 165.691Z" fill="white"/>
<path d="M216.563 188.831L213.549 190.57C212.484 191.186 210.753 191.18 209.682 190.564L206.649 188.811C206.187 188.548 205.937 188.208 205.873 187.861C205.783 188.323 206.033 188.805 206.649 189.164L209.682 190.917C210.753 191.533 212.484 191.539 213.549 190.923L216.563 189.184C217.172 188.831 217.416 188.356 217.326 187.9C217.262 188.24 217.018 188.567 216.563 188.831Z" fill="white"/>
<path d="M213.209 194.845C213.145 195.147 212.92 195.442 212.523 195.673L209.137 197.631C208.175 198.189 206.61 198.183 205.642 197.624L202.237 195.654C201.827 195.416 201.602 195.121 201.538 194.813C201.448 195.237 201.673 195.68 202.237 196.007L205.642 197.977C206.61 198.536 208.175 198.542 209.137 197.984L212.523 196.026C213.074 195.699 213.299 195.262 213.209 194.845Z" fill="white"/>
<path d="M118.314 168.483C118.25 168.829 117.993 169.17 117.532 169.439L114.595 171.134C113.511 171.763 111.741 171.756 110.651 171.127L107.701 169.42C107.233 169.15 106.976 168.804 106.906 168.451C106.816 168.919 107.073 169.414 107.701 169.773L110.651 171.48C111.741 172.109 113.511 172.116 114.595 171.487L117.532 169.792C118.154 169.433 118.404 168.951 118.314 168.483Z" fill="white"/>
<path d="M103.154 157.757L118.763 166.775C119.853 167.404 121.623 167.411 122.707 166.782L125.644 165.087C126.259 164.728 126.516 164.246 126.426 163.778C126.362 164.124 126.105 164.465 125.644 164.734L122.707 166.429C121.623 167.058 119.853 167.051 118.763 166.422L103.154 157.404C102.686 157.134 102.43 156.788 102.359 156.435C102.276 156.903 102.532 157.391 103.154 157.757Z" fill="white"/>
<path d="M132.23 155.549L135.263 157.301C136.334 157.918 138.065 157.924 139.13 157.308L142.144 155.568C142.753 155.215 142.997 154.74 142.907 154.285C142.843 154.625 142.593 154.959 142.144 155.215L139.13 156.955C138.065 157.571 136.334 157.565 135.263 156.948L132.23 155.196C131.768 154.933 131.518 154.593 131.454 154.246C131.364 154.708 131.614 155.19 132.23 155.549Z" fill="white"/>
<path d="M127.087 173.554C127.023 173.901 126.766 174.241 126.304 174.51L123.367 176.205C122.284 176.834 120.514 176.828 119.424 176.199L116.474 174.491C116.006 174.222 115.749 173.875 115.679 173.522C115.589 173.991 115.845 174.485 116.474 174.844L119.424 176.552C120.514 177.181 122.284 177.187 123.367 176.558L126.304 174.864C126.926 174.504 127.176 174.016 127.087 173.554Z" fill="white"/>
<path d="M127.689 143.533L130.723 145.285C131.794 145.902 133.525 145.908 134.589 145.292L137.603 143.552C138.213 143.199 138.456 142.724 138.367 142.268C138.302 142.609 138.052 142.942 137.603 143.199L134.589 144.939C133.525 145.555 131.794 145.549 130.723 144.932L127.689 143.18C127.228 142.917 126.978 142.577 126.913 142.23C126.824 142.692 127.074 143.174 127.689 143.533Z" fill="white"/>
<path d="M188.501 209.044C188.437 209.39 188.18 209.731 187.719 210L184.782 211.695C183.698 212.324 181.928 212.317 180.838 211.688L125.246 179.562C124.778 179.292 124.522 178.946 124.451 178.593C124.361 179.061 124.618 179.556 125.246 179.915L180.838 212.041C181.928 212.671 183.698 212.677 184.782 212.048L187.719 210.353C188.341 209.994 188.591 209.512 188.501 209.044Z" fill="white"/>
<path d="M119.565 148.225L126.49 152.23C127.561 152.846 129.293 152.853 130.357 152.237L133.371 150.497C133.98 150.144 134.224 149.669 134.134 149.213C134.07 149.554 133.82 149.887 133.371 150.144L130.357 151.884C129.293 152.5 127.561 152.493 126.49 151.877L119.565 147.872C119.103 147.609 118.853 147.268 118.789 146.922C118.693 147.39 118.949 147.872 119.565 148.225Z" fill="white"/>
<path d="M111.247 152.815L122.245 159.169C123.213 159.728 124.778 159.734 125.74 159.176L129.126 157.218C129.684 156.897 129.902 156.46 129.812 156.037C129.748 156.338 129.523 156.634 129.126 156.865L125.74 158.823C124.778 159.381 123.213 159.375 122.245 158.816L111.247 152.461C110.837 152.224 110.612 151.929 110.548 151.621C110.458 152.044 110.683 152.487 111.247 152.815Z" fill="white"/>
<path d="M222.354 220.617L219.417 222.312C218.333 222.941 216.563 222.934 215.473 222.305L212.523 220.598C212.055 220.328 211.798 219.981 211.728 219.628C211.638 220.097 211.895 220.591 212.523 220.951L215.473 222.658C216.563 223.287 218.333 223.294 219.417 222.665L222.354 220.97C222.969 220.611 223.226 220.129 223.136 219.661C223.065 220.014 222.815 220.354 222.354 220.617Z" fill="white"/>
<path d="M230.895 215.681L227.509 217.639C226.548 218.197 224.983 218.191 224.014 217.632L215.351 212.626C214.941 212.388 214.716 212.093 214.652 211.785C214.562 212.208 214.787 212.651 215.351 212.979L224.014 217.985C224.983 218.544 226.548 218.55 227.509 217.992L230.895 216.034C231.453 215.713 231.671 215.277 231.581 214.853C231.517 215.155 231.299 215.45 230.895 215.681Z" fill="white"/>
<path d="M197.273 214.115C197.209 214.461 196.953 214.801 196.491 215.071L193.554 216.766C192.47 217.395 190.7 217.388 189.61 216.759L186.66 215.052C186.192 214.782 185.936 214.436 185.865 214.083C185.776 214.551 186.032 215.045 186.66 215.405L189.61 217.112C190.7 217.741 192.47 217.748 193.554 217.119L196.491 215.424C197.113 215.065 197.363 214.583 197.273 214.115Z" fill="white"/>
<path d="M246.965 206.399L243.951 208.139C242.887 208.755 241.156 208.748 240.085 208.132L233.159 204.127C232.697 203.864 232.447 203.523 232.383 203.177C232.293 203.639 232.543 204.12 233.159 204.48L240.085 208.485C241.156 209.101 242.887 209.108 243.951 208.492L246.965 206.752C247.575 206.399 247.818 205.924 247.729 205.468C247.664 205.802 247.414 206.136 246.965 206.399Z" fill="white"/>
<path d="M251.839 203.575C250.903 204.114 249.383 204.114 248.44 203.569L244.939 201.54C244.541 201.309 244.323 201.027 244.259 200.731C244.17 201.142 244.388 201.579 244.939 201.9L248.44 203.928C249.383 204.474 250.903 204.474 251.839 203.934C252.384 203.62 252.596 203.196 252.506 202.785C252.442 203.074 252.23 203.357 251.839 203.575Z" fill="white"/>
<path d="M239.02 210.982L235.634 212.94C234.672 213.498 233.108 213.492 232.139 212.934L228.734 210.963C228.324 210.725 228.099 210.43 228.035 210.122C227.945 210.546 228.17 210.989 228.734 211.316L232.139 213.287C233.108 213.845 234.672 213.851 235.634 213.293L239.02 211.335C239.578 211.014 239.796 210.578 239.706 210.154C239.642 210.462 239.424 210.751 239.02 210.982Z" fill="white"/>
<path d="M206.053 219.185C205.988 219.532 205.732 219.872 205.27 220.142L202.333 221.836C201.249 222.465 199.48 222.459 198.389 221.83L195.44 220.123C194.971 219.853 194.715 219.506 194.644 219.153C194.555 219.622 194.811 220.116 195.44 220.476L198.389 222.183C199.48 222.812 201.249 222.818 202.333 222.189L205.27 220.495C205.886 220.135 206.136 219.654 206.053 219.185Z" fill="white"/>
<path d="M214.222 225.316L211.285 227.01C210.202 227.639 208.432 227.633 207.342 227.004L204.392 225.296C203.924 225.027 203.667 224.68 203.597 224.327C203.507 224.796 203.763 225.29 204.392 225.649L207.342 227.357C208.432 227.986 210.202 227.992 211.285 227.363L214.222 225.669C214.838 225.309 215.095 224.828 215.005 224.359C214.941 224.706 214.684 225.046 214.222 225.316Z" fill="white"/>
<path d="M135.577 138.699L142.977 142.974C143.92 143.52 145.44 143.52 146.376 142.981C146.921 142.666 147.133 142.243 147.043 141.832C146.979 142.121 146.761 142.403 146.376 142.628C145.44 143.167 143.92 143.167 142.977 142.621L135.577 138.346C135.179 138.115 134.961 137.833 134.897 137.538C134.807 137.948 135.025 138.378 135.577 138.699Z" fill="white"/>
<path d="M109.542 163.412C109.477 163.759 109.221 164.099 108.759 164.368L105.822 166.063C104.738 166.692 102.969 166.686 101.878 166.057L95.0296 162.103C94.5615 161.833 94.305 161.486 94.2344 161.133C94.1447 161.602 94.4012 162.096 95.0296 162.456L101.878 166.41C102.969 167.039 104.738 167.045 105.822 166.416L108.759 164.721C109.375 164.362 109.631 163.881 109.542 163.412Z" fill="white"/>
<path d="M230.754 204.98C230.69 205.282 230.466 205.577 230.068 205.808L226.682 207.766C225.72 208.325 224.156 208.318 223.187 207.76L219.782 205.789C219.372 205.552 219.147 205.256 219.083 204.948C218.993 205.372 219.218 205.815 219.782 206.142L223.187 208.113C224.156 208.671 225.72 208.678 226.682 208.119L230.068 206.161C230.62 205.84 230.844 205.404 230.754 204.98Z" fill="white"/>
<path d="M234.877 198.036C234.813 198.376 234.563 198.71 234.114 198.966L231.1 200.706C230.036 201.322 228.305 201.316 227.234 200.699L224.2 198.947C223.739 198.684 223.489 198.344 223.424 197.997C223.335 198.459 223.585 198.941 224.2 199.3L227.234 201.052C228.305 201.669 230.036 201.675 231.1 201.059L234.114 199.319C234.717 198.973 234.967 198.498 234.877 198.036Z" fill="white"/>
<path d="M217.557 206.746C217.493 207.048 217.268 207.343 216.871 207.574L213.485 209.532C212.523 210.09 210.958 210.084 209.99 209.525L206.585 207.555C206.174 207.317 205.95 207.022 205.886 206.714C205.796 207.138 206.021 207.58 206.585 207.908L209.99 209.878C210.958 210.437 212.523 210.443 213.485 209.885L216.871 207.927C217.422 207.606 217.647 207.17 217.557 206.746Z" fill="white"/>
<path d="M235.981 196.726L239.482 198.754C240.425 199.3 241.944 199.3 242.881 198.761C243.426 198.446 243.637 198.022 243.547 197.612C243.483 197.9 243.265 198.183 242.881 198.408C241.944 198.947 240.425 198.947 239.482 198.401L235.981 196.373C235.583 196.142 235.365 195.859 235.301 195.564C235.211 195.968 235.429 196.405 235.981 196.726Z" fill="white"/>
<path d="M127.619 162.276L131.024 164.247C131.992 164.805 133.557 164.811 134.519 164.253L137.905 162.295C138.463 161.974 138.681 161.538 138.591 161.114C138.527 161.416 138.302 161.711 137.905 161.942L134.519 163.9C133.557 164.458 131.992 164.452 131.024 163.894L127.619 161.923C127.208 161.685 126.984 161.39 126.92 161.082C126.824 161.506 127.055 161.949 127.619 162.276Z" fill="white"/>
<path d="M214.165 214.48C214.1 214.827 213.844 215.167 213.382 215.437L210.445 217.131C209.361 217.76 207.592 217.754 206.501 217.125L203.552 215.417C203.083 215.148 202.827 214.801 202.756 214.448C202.667 214.917 202.923 215.411 203.552 215.771L206.501 217.478C207.592 218.107 209.361 218.113 210.445 217.484L213.382 215.79C213.998 215.43 214.254 214.949 214.165 214.48Z" fill="white"/>
<path d="M227.208 191.655L230.709 193.683C231.652 194.229 233.172 194.229 234.108 193.69C234.653 193.375 234.865 192.952 234.775 192.541C234.711 192.83 234.493 193.112 234.108 193.337C233.172 193.876 231.652 193.876 230.709 193.33L227.208 191.302C226.811 191.071 226.592 190.788 226.528 190.493C226.439 190.904 226.657 191.334 227.208 191.655Z" fill="white"/>
<path d="M124.586 170.139L127.536 171.846C128.626 172.475 130.396 172.482 131.479 171.853L134.416 170.158C135.032 169.799 135.289 169.317 135.199 168.849C135.135 169.195 134.878 169.535 134.416 169.805L131.479 171.5C130.396 172.129 128.626 172.122 127.536 171.493L124.586 169.786C124.118 169.516 123.861 169.169 123.791 168.816C123.701 169.285 123.957 169.779 124.586 170.139Z" fill="white"/>
<path d="M200.89 176.442L204.398 178.47C205.341 179.016 206.861 179.016 207.797 178.477C208.342 178.162 208.553 177.739 208.464 177.328C208.4 177.617 208.182 177.899 207.797 178.124C206.861 178.663 205.341 178.663 204.398 178.117L200.89 176.089C200.493 175.858 200.275 175.576 200.211 175.28C200.114 175.691 200.339 176.121 200.89 176.442Z" fill="white"/>
<path d="M174.566 161.23L178.068 163.258C179.01 163.804 180.53 163.804 181.466 163.264C182.011 162.95 182.223 162.526 182.133 162.115C182.069 162.404 181.851 162.687 181.466 162.911C180.53 163.451 179.01 163.451 178.068 162.905L174.566 160.877C174.169 160.646 173.951 160.363 173.887 160.068C173.797 160.479 174.015 160.915 174.566 161.23Z" fill="white"/>
<path d="M165.794 156.159L169.301 158.187C170.244 158.733 171.764 158.733 172.7 158.194C173.245 157.879 173.457 157.455 173.367 157.045C173.303 157.334 173.085 157.616 172.7 157.841C171.764 158.38 170.244 158.38 169.301 157.834L165.794 155.806C165.396 155.575 165.178 155.292 165.114 154.997C165.024 155.408 165.242 155.844 165.794 156.159Z" fill="white"/>
<path d="M218.435 186.584L221.937 188.613C222.879 189.158 224.399 189.158 225.335 188.619C225.881 188.304 226.092 187.881 226.002 187.47C225.938 187.759 225.72 188.041 225.335 188.266C224.399 188.805 222.879 188.805 221.937 188.26L218.435 186.231C218.038 186 217.82 185.718 217.756 185.422C217.666 185.833 217.884 186.263 218.435 186.584Z" fill="white"/>
<path d="M157.021 151.088L160.522 153.116C161.465 153.662 162.985 153.662 163.921 153.122C164.466 152.808 164.678 152.384 164.588 151.973C164.524 152.262 164.306 152.545 163.921 152.769C162.985 153.309 161.465 153.309 160.522 152.763L157.021 150.735C156.623 150.503 156.405 150.221 156.341 149.926C156.252 150.337 156.47 150.773 157.021 151.088Z" fill="white"/>
<path d="M183.339 166.3L186.84 168.329C187.783 168.874 189.303 168.874 190.239 168.335C190.784 168.021 190.995 167.597 190.906 167.186C190.842 167.475 190.624 167.758 190.239 167.982C189.303 168.521 187.783 168.521 186.84 167.976L183.339 165.947C182.941 165.716 182.723 165.434 182.659 165.139C182.569 165.549 182.787 165.986 183.339 166.3Z" fill="white"/>
<path d="M209.663 181.513L213.164 183.542C214.107 184.087 215.627 184.087 216.563 183.548C217.108 183.234 217.32 182.81 217.23 182.399C217.166 182.688 216.948 182.97 216.563 183.195C215.627 183.734 214.107 183.734 213.164 183.189L209.663 181.16C209.265 180.929 209.047 180.647 208.983 180.352C208.893 180.762 209.111 181.192 209.663 181.513Z" fill="white"/>
<path d="M148.248 146.023L151.756 148.052C152.699 148.597 154.219 148.597 155.155 148.058C155.7 147.743 155.912 147.32 155.822 146.909C155.758 147.198 155.54 147.48 155.155 147.705C154.219 148.244 152.699 148.244 151.756 147.698L148.248 145.67C147.851 145.439 147.633 145.157 147.569 144.861C147.473 145.266 147.697 145.702 148.248 146.023Z" fill="white"/>
<path d="M192.118 171.371L195.625 173.4C196.568 173.945 198.088 173.945 199.024 173.406C199.569 173.092 199.781 172.668 199.691 172.257C199.627 172.546 199.409 172.828 199.024 173.053C198.088 173.592 196.568 173.592 195.625 173.047L192.118 171.018C191.72 170.787 191.502 170.505 191.438 170.209C191.342 170.62 191.566 171.05 192.118 171.371Z" fill="white"/>
<path d="M135.84 227.883L100.346 207.368C98.9415 206.559 99.121 205.141 100.737 204.21L120.879 192.566C122.495 191.629 124.945 191.526 126.349 192.342L161.844 212.856C163.248 213.665 163.068 215.084 161.452 216.014L141.31 227.658C139.694 228.589 137.244 228.692 135.84 227.883Z" fill="white"/>
<path d="M100.744 205.539L120.886 193.895C122.502 192.958 124.951 192.855 126.356 193.67L161.85 214.185C162.209 214.39 162.459 214.634 162.613 214.904C162.991 214.166 162.761 213.389 161.85 212.863L126.356 192.348C124.951 191.539 122.508 191.642 120.886 192.573L100.744 204.217C99.5379 204.916 99.1339 205.879 99.5892 206.662C99.7945 206.251 100.173 205.866 100.744 205.539Z" fill="#7CBAC4"/>
<path d="M109.627 61.45C108.741 61.26 107.834 61.15 106.937 61C105.919 61 104.889 61 103.871 61C103.749 61.03 103.638 61.08 103.516 61.09C98.5681 61.59 94.439 63.55 91.273 67.01C87.797 70.81 86.3579 75.19 87.2656 80.1C87.8745 83.37 89.3136 86.4 90.8966 89.37C94.4279 95.97 98.8116 102.11 103.539 108.06C104.623 109.43 106.151 109.42 107.247 108.06C110.269 104.3 113.092 100.43 115.693 96.44C118.195 92.59 120.52 88.66 122.203 84.44C123.033 82.35 123.741 80.23 123.797 77.99C123.996 70.13 118.085 63.26 109.627 61.45ZM105.376 83.66C101.712 83.66 98.7231 80.94 98.7231 77.62C98.7231 74.3 101.723 71.6 105.398 71.6C109.062 71.6 112.074 74.31 112.074 77.61C112.074 80.96 109.074 83.67 105.376 83.66Z" fill="#00CCA6"/>
<path d="M239.627 276.45C238.741 276.26 237.834 276.15 236.937 276C235.919 276 234.889 276 233.871 276C233.749 276.03 233.638 276.08 233.516 276.09C228.568 276.59 224.439 278.55 221.273 282.01C217.797 285.81 216.358 290.19 217.266 295.1C217.874 298.37 219.314 301.4 220.897 304.37C224.428 310.97 228.812 317.11 233.539 323.06C234.623 324.43 236.151 324.42 237.247 323.06C240.269 319.3 243.092 315.43 245.693 311.44C248.195 307.59 250.52 303.66 252.203 299.44C253.033 297.35 253.741 295.23 253.797 292.99C253.996 285.13 248.084 278.26 239.627 276.45ZM235.376 298.66C231.712 298.66 228.723 295.94 228.723 292.62C228.723 289.3 231.723 286.6 235.398 286.6C239.062 286.6 242.073 289.31 242.073 292.61C242.073 295.96 239.074 298.67 235.376 298.66Z" fill="#00CCA6"/>
<path d="M58.627 27.45C57.7414 27.26 56.8337 27.15 55.937 27C54.9186 27 53.8891 27 52.8706 27C52.7488 27.03 52.6381 27.08 52.5164 27.09C47.5681 27.59 43.439 29.55 40.273 33.01C36.797 36.81 35.3579 41.19 36.2656 46.1C36.8745 49.37 38.3136 52.4 39.8966 55.37C43.4279 61.97 47.8116 68.11 52.5385 74.06C53.6234 75.43 55.151 75.42 56.247 74.06C59.2691 70.3 62.0919 66.43 64.6934 62.44C67.1952 58.59 69.5199 54.66 71.2025 50.44C72.0328 48.35 72.7413 46.23 72.7966 43.99C72.9959 36.13 67.0845 29.26 58.627 27.45ZM54.3761 49.66C50.712 49.66 47.7231 46.94 47.7231 43.62C47.7231 40.3 50.723 37.6 54.3983 37.6C58.0625 37.6 61.0735 40.31 61.0735 43.61C61.0735 46.96 58.0735 49.67 54.3761 49.66Z" fill="#00CCA6"/>
</g>
<defs>
<linearGradient id="paint0_linear" x1="0" y1="257.125" x2="338" y2="257.125" gradientUnits="userSpaceOnUse">
<stop offset="0.1414" stop-color="#F0F8FA"/>
<stop offset="0.3647" stop-color="#F3FAFB"/>
<stop offset="0.5" stop-color="#FAFDFD"/>
<stop offset="0.596" stop-color="#DAEBF2"/>
</linearGradient>
<linearGradient id="paint1_linear" x1="0" y1="257.125" x2="338" y2="257.125" gradientUnits="userSpaceOnUse">
<stop stop-color="#C5FFF4"/>
<stop offset="0.0442" stop-color="#D3FFF7"/>
<stop offset="0.1279" stop-color="#E6FFFA"/>
<stop offset="0.2241" stop-color="#F4FFFD"/>
<stop offset="0.3429" stop-color="#FDFFFF"/>
<stop offset="0.5514" stop-color="white"/>
<stop offset="0.5906" stop-color="#F8FEFD"/>
<stop offset="0.646" stop-color="#E6FAF6"/>
<stop offset="0.7112" stop-color="#C7F4EC"/>
<stop offset="0.7838" stop-color="#9DEBDD"/>
<stop offset="0.8626" stop-color="#66E0CA"/>
<stop offset="0.9453" stop-color="#25D3B3"/>
<stop offset="0.9882" stop-color="#00CCA6"/>
</linearGradient>
<linearGradient id="paint2_linear" x1="130.385" y1="113.187" x2="202.548" y2="300.195" gradientUnits="userSpaceOnUse">
<stop stop-color="#00CCA6"/>
<stop offset="0.0189" stop-color="#18D1AE"/>
<stop offset="0.0608" stop-color="#48DABF"/>
<stop offset="0.1062" stop-color="#74E3CE"/>
<stop offset="0.1542" stop-color="#99EBDC"/>
<stop offset="0.2053" stop-color="#B9F1E7"/>
<stop offset="0.2605" stop-color="#D3F6F0"/>
<stop offset="0.3213" stop-color="#E6FAF6"/>
<stop offset="0.3909" stop-color="#F4FDFB"/>
<stop offset="0.4768" stop-color="#FDFFFE"/>
<stop offset="0.6275" stop-color="white"/>
<stop offset="0.6599" stop-color="#F8FEFD"/>
<stop offset="0.7056" stop-color="#E6FAF6"/>
<stop offset="0.7595" stop-color="#C7F4EC"/>
<stop offset="0.8194" stop-color="#9DEBDD"/>
<stop offset="0.8845" stop-color="#66E0CA"/>
<stop offset="0.9528" stop-color="#25D3B3"/>
<stop offset="0.9882" stop-color="#00CCA6"/>
</linearGradient>
<linearGradient id="paint3_linear" x1="33.2784" y1="223.674" x2="287.225" y2="223.674" gradientUnits="userSpaceOnUse">
<stop stop-color="#00CCA6"/>
<stop offset="0.9882" stop-color="white"/>
</linearGradient>
<linearGradient id="paint4_linear" x1="324.369" y1="78.1791" x2="138.357" y2="112.031" gradientUnits="userSpaceOnUse">
<stop stop-color="#FAFDFD"/>
<stop offset="1" stop-color="#DAEBF2"/>
</linearGradient>
<linearGradient id="paint5_linear" x1="178.41" y1="32.5686" x2="308.034" y2="213.286" gradientUnits="userSpaceOnUse">
<stop stop-color="#017760"/>
<stop offset="0.557292" stop-color="#0CA88B"/>
<stop offset="1" stop-color="#01CCA6"/>
</linearGradient>
<linearGradient id="paint6_linear" x1="87.4968" y1="182.943" x2="259.088" y2="182.943" gradientUnits="userSpaceOnUse">
<stop stop-color="#00CCA6"/>
<stop offset="0.9882" stop-color="white"/>
</linearGradient>
<linearGradient id="paint7_linear" x1="152.949" y1="205.775" x2="199.942" y2="151.414" gradientUnits="userSpaceOnUse">
<stop stop-color="#C9E3EC"/>
<stop offset="1" stop-color="#92C1CF"/>
</linearGradient>
<clipPath id="clip0">
<rect width="338" height="330" fill="white" transform="translate(0 -10)"/>
</clipPath>
</defs>
</svg>
