<svg width="409" height="462" viewBox="0 0 409 462" fill="none" xmlns="http://www.w3.org/2000/svg">
<path d="M366.692 116.281L324.399 149.088C329.325 145.269 327.287 134.354 319.843 124.765C312.377 115.144 302.335 110.488 297.409 114.309L339.702 81.5028C344.628 77.6838 354.67 82.337 362.136 91.9582C369.579 101.548 371.618 112.462 366.692 116.281Z" fill="url(#paint0_linear)"/>
<g opacity="0.3">
<path opacity="0.3" d="M339.702 81.5025L297.409 114.309C301.365 111.241 308.623 113.651 315.198 119.701C329.045 107.419 346.403 102.246 362.852 92.9307C362.615 92.6074 362.387 92.2813 362.139 91.9579C354.67 82.3368 344.628 77.6806 339.702 81.5025Z" fill="url(#paint1_linear)"/>
</g>
<path d="M278.685 218.601L218.699 141.303L298.833 86.0752L298.876 86.133C305.993 80.6137 323.675 91.4704 338.362 110.398C353.05 129.326 359.176 149.148 352.059 154.668L352.103 154.725L278.685 218.601Z" fill="url(#paint2_linear)"/>
<path opacity="0.3" d="M298.879 86.1299L298.835 86.0722L218.699 141.302L252.506 184.868C260.937 182.723 269.342 180.237 277.49 176.34C280.432 174.38 284.356 171.439 287.298 167.516C295.143 153.79 298.085 139.083 307.893 127.317C315.677 117.704 325.167 111.726 335.273 106.585C321.278 90.0471 305.502 80.9946 298.879 86.1299Z" fill="url(#paint3_linear)"/>
<path d="M284.717 219.259C284.347 219.548 283.925 219.825 283.51 220.056L199.614 280.895C205.216 276.184 196.323 255.088 179.606 233.542C162.885 211.996 144.635 198.114 138.678 202.369L218.667 136.083C218.959 135.812 219.251 135.541 219.562 135.298C229.726 127.415 252.558 139.796 270.557 162.993C288.536 186.161 294.88 211.379 284.717 219.259Z" fill="url(#paint4_linear)"/>
<path opacity="0.3" d="M219.562 135.301C219.251 135.544 218.959 135.815 218.667 136.086L138.676 202.369C144.337 198.325 161.118 210.683 177.128 230.428C185.158 217.975 195.344 206.985 208.842 198.888C230.419 187.122 254.934 187.122 277.49 176.338C277.952 176.029 278.443 175.688 278.948 175.333C276.528 171.225 273.728 167.077 270.557 162.993C252.558 139.799 229.726 127.418 219.562 135.301Z" fill="url(#paint5_linear)"/>
<path d="M199.614 280.895L199.502 280.984C199.444 281.028 199.36 281.094 199.279 281.108C199.216 281.204 199.138 281.218 199.031 281.259C192.725 284.826 174.865 271.095 158.456 249.95C142.045 228.803 133.158 208.068 138.182 202.849C138.245 202.753 138.28 202.681 138.387 202.644C138.422 202.572 138.505 202.505 138.563 202.459L138.676 202.37C144.632 198.115 162.883 211.996 179.603 233.542C196.323 255.088 205.216 276.187 199.614 280.895Z" fill="url(#paint6_linear)"/>
<path d="M152.904 285.756C147.182 290.196 135.716 285 127.28 274.129C118.843 263.255 116.634 250.833 122.357 246.394C125.631 243.854 130.816 244.486 136.227 247.58C140.229 249.858 144.372 253.434 147.973 258.076C151.573 262.715 154.01 267.616 155.22 272.059C156.86 278.043 156.178 283.219 152.904 285.756Z" fill="url(#paint7_linear)"/>
<path d="M119.002 259.491C124.716 255.057 133.915 257.346 139.548 264.603C145.178 271.86 145.111 281.337 139.395 285.771C133.681 290.204 124.482 287.915 118.849 280.658C113.219 273.401 113.288 263.924 119.002 259.491Z" fill="url(#paint8_linear)"/>
<path d="M180.284 264.519L152.904 285.759C156.178 283.219 156.857 278.043 155.225 272.059C154.013 267.619 151.579 262.715 147.978 258.076C144.378 253.437 140.232 249.858 136.233 247.58C130.822 244.486 125.637 243.854 122.363 246.394L149.743 225.154C155.465 220.714 166.951 225.939 175.39 236.813C183.824 247.687 186.007 260.079 180.284 264.519Z" fill="url(#paint9_linear)"/>
<path opacity="0.3" d="M165.458 227.434C159.398 223.433 153.395 222.322 149.74 225.157L122.36 246.397C125.634 243.856 130.819 244.489 136.23 247.583C136.496 247.733 136.764 247.906 137.03 248.071C143.87 237.867 154.004 231.343 165.458 227.434Z" fill="url(#paint10_linear)"/>
<path d="M144.782 356.248C144.592 356.164 144.407 356.089 144.228 355.997C134.122 351.213 122.669 342.911 111.145 331.882C106.304 327.286 101.444 322.206 96.6918 316.68C93.8219 313.447 91.0039 309.978 88.2379 306.413C78.834 294.295 71.0904 282.023 65.2985 270.462C59.7809 259.534 55.9755 249.214 54.2258 240.337C55.2624 240.716 57.1131 239.702 58.2103 240.121C60.3671 240.947 96.7062 257.034 117.835 284.073C136.325 307.735 142.233 340.007 145.319 351.892C145.862 353.993 144.67 355.566 144.782 356.248Z" fill="url(#paint11_linear)"/>
<path d="M52.7676 334.567C52.2508 334.567 51.8206 334.165 51.7888 333.643C51.7571 333.103 52.1699 332.638 52.7099 332.607L59.5642 332.214L136.981 327.555C137.521 327.515 137.985 327.933 138.02 328.473C138.052 329.013 137.642 329.477 137.102 329.512L52.8225 334.564C52.8051 334.567 52.7878 334.567 52.7676 334.567Z" fill="#26264F"/>
<path d="M52.7706 334.567C52.5541 334.567 52.3433 334.494 52.1672 334.359C51.8842 334.136 51.7427 333.776 51.8063 333.421L53.3654 324.325L67.1088 244.954C67.2012 244.42 67.7122 244.064 68.2406 244.154C68.7748 244.246 69.1328 244.754 69.0404 245.288L54.0468 331.957L59.1457 329.717L123.991 301.442C124.488 301.226 125.068 301.454 125.282 301.947C125.498 302.444 125.27 303.021 124.773 303.238L53.1662 334.483C53.0362 334.541 52.9034 334.567 52.7706 334.567Z" fill="#26264F"/>
<path d="M53.0651 340.836C57.5204 340.836 61.1321 337.225 61.1321 332.771C61.1321 328.317 57.5204 324.706 53.0651 324.706C48.6098 324.706 44.998 328.317 44.998 332.771C44.998 337.225 48.6098 340.836 53.0651 340.836Z" fill="url(#paint12_linear)"/>
<path d="M147.441 357.382C146.564 357.039 145.669 356.672 144.782 356.248C143.408 347.905 140.847 337.034 138.367 330.231C135.274 321.732 131.05 312.888 125.694 304.04C122.172 298.206 118.205 292.378 113.744 286.628C100.079 269.019 84.3747 255.308 69.3955 246.815C65.772 244.76 59.4142 242.24 54.2229 240.34C54.1912 240.185 54.1594 240.049 54.1363 239.905C53.7234 237.728 53.4116 235.638 53.2268 233.643C81.1554 232.486 110.637 245.782 130.557 271.45C150.903 297.666 156.256 330.254 147.441 357.382Z" fill="url(#paint13_linear)"/>
<path d="M140.801 177.247L98.3635 137.501L27.9632 46.7794L0 -4.19296L69.3696 -58L76.5069 -56.3546L97.3328 -7.02765L167.733 83.6909L210.167 123.44L147.938 178.892L140.801 177.247Z" fill="url(#paint14_linear)"/>
<path d="M147.938 178.893L105.501 139.146L35.1007 48.4278L7.13745 -2.54457L76.507 -56.3545L104.47 -5.38214L174.871 85.3393L217.305 125.085L147.938 178.893Z" fill="url(#paint15_linear)"/>
<path d="M193.849 143.378L151.411 103.632L80.9592 12.8555L52.9526 -38.1833L53.813 -38.6538L81.7763 12.3186L152.136 102.974L194.518 142.665L193.849 143.378Z" fill="white"/>
<path d="M170.724 161.315L128.29 121.566L57.8378 30.7901L29.8313 -20.2458L30.6917 -20.7163L58.6549 30.2532L129.012 120.908L171.394 160.6L170.724 161.315Z" fill="white"/>
<path d="M92.2126 -27.561L22.8601 26.2656L23.4621 27.0409L92.8145 -26.7858L92.2126 -27.561Z" fill="white"/>
<path d="M114.197 7.23533L44.8442 61.062L45.4462 61.8373L114.799 8.01059L114.197 7.23533Z" fill="white"/>
<path d="M139.318 39.6089L69.9658 93.4355L70.5678 94.2108L139.92 40.3841L139.318 39.6089Z" fill="white"/>
<path d="M162.923 70.0225L93.5703 123.849L94.1723 124.624L163.525 70.7977L162.923 70.0225Z" fill="white"/>
<path d="M190.614 99.8335L121.262 153.66L121.864 154.435L191.216 100.609L190.614 99.8335Z" fill="white"/>
<path d="M222.135 279.714L250.098 330.687L320.499 421.405L362.933 461.154L367.63 462L432.302 407.344L389.868 367.598L319.468 276.877L296.199 226.753L291.502 225.907L222.135 279.714Z" fill="url(#paint16_linear)"/>
<path d="M226.83 280.56L254.796 331.532L325.196 422.251L367.63 462L437 408.19L394.566 368.444L324.165 277.722L296.199 226.753L226.83 280.56Z" fill="url(#paint17_linear)"/>
<path opacity="0.3" d="M413.541 426.483L371.107 386.737L300.654 295.96L272.648 244.922L273.505 244.451L301.472 295.424L371.829 386.079L414.214 425.77L413.541 426.483Z" fill="#333669"/>
<path opacity="0.3" d="M390.417 444.421L347.983 404.674L277.53 313.898L249.524 262.859L250.384 262.389L278.35 313.361L348.707 404.013L391.089 443.705L390.417 444.421Z" fill="#333669"/>
<path opacity="0.3" d="M412.375 385.021L343.022 438.848L343.624 439.623L412.977 385.796L412.375 385.021Z" fill="#333669"/>
<path opacity="0.3" d="M384.126 355.085L314.774 408.912L315.376 409.687L384.728 355.861L384.126 355.085Z" fill="#333669"/>
<path opacity="0.3" d="M359.005 322.711L289.653 376.538L290.255 377.313L359.607 323.487L359.005 322.711Z" fill="#333669"/>
<path opacity="0.3" d="M335.402 292.288L266.05 346.114L266.652 346.89L336.004 293.063L335.402 292.288Z" fill="#333669"/>
<path opacity="0.3" d="M313.402 258.068L244.05 311.895L244.652 312.67L314.004 258.844L313.402 258.068Z" fill="#333669"/>
<defs>
<linearGradient id="paint0_linear" x1="323.026" y1="94.4385" x2="350.007" y2="129.223" gradientUnits="userSpaceOnUse">
<stop stop-color="#00876D"/>
<stop offset="1" stop-color="#1BD1B0"/>
</linearGradient>
<linearGradient id="paint1_linear" x1="297.41" y1="99.9336" x2="362.85" y2="99.9336" gradientUnits="userSpaceOnUse">
<stop stop-color="#444B8C"/>
<stop offset="0.9964" stop-color="#26264F"/>
</linearGradient>
<linearGradient id="paint2_linear" x1="197.344" y1="167.457" x2="549.747" y2="107.756" gradientUnits="userSpaceOnUse">
<stop stop-color="#00CCA6"/>
<stop offset="0.9882" stop-color="white"/>
</linearGradient>
<linearGradient id="paint3_linear" x1="235.879" y1="200.616" x2="380.209" y2="-68.6984" gradientUnits="userSpaceOnUse">
<stop stop-color="white"/>
<stop offset="0.9964" stop-color="#00CCA6"/>
</linearGradient>
<linearGradient id="paint4_linear" x1="187.279" y1="160.341" x2="252.416" y2="244.315" gradientUnits="userSpaceOnUse">
<stop stop-color="#00876D"/>
<stop offset="1" stop-color="#1BD1B0"/>
</linearGradient>
<linearGradient id="paint5_linear" x1="138.677" y1="181.678" x2="278.948" y2="181.678" gradientUnits="userSpaceOnUse">
<stop offset="0.00359712" stop-color="white"/>
<stop offset="1" stop-color="#00CCA6"/>
</linearGradient>
<linearGradient id="paint6_linear" x1="148.105" y1="275.64" x2="180.725" y2="222.79" gradientUnits="userSpaceOnUse">
<stop stop-color="#00876D"/>
<stop offset="1" stop-color="#1BD1B0"/>
</linearGradient>
<linearGradient id="paint7_linear" x1="94.0862" y1="296.903" x2="186.81" y2="231.234" gradientUnits="userSpaceOnUse">
<stop stop-color="#00CCA6"/>
<stop offset="0.9882" stop-color="white"/>
</linearGradient>
<linearGradient id="paint8_linear" x1="119.002" y1="259.491" x2="139.39" y2="285.774" gradientUnits="userSpaceOnUse">
<stop stop-color="#00876D"/>
<stop offset="1" stop-color="#1BD1B0"/>
</linearGradient>
<linearGradient id="paint9_linear" x1="138.333" y1="276.654" x2="168.073" y2="229.051" gradientUnits="userSpaceOnUse">
<stop stop-color="#00CCA6"/>
<stop offset="0.9882" stop-color="white"/>
</linearGradient>
<linearGradient id="paint10_linear" x1="122.359" y1="235.823" x2="165.458" y2="235.823" gradientUnits="userSpaceOnUse">
<stop stop-color="white"/>
<stop offset="0.9964" stop-color="#00CCA6"/>
</linearGradient>
<linearGradient id="paint11_linear" x1="83.6075" y1="310.811" x2="117.993" y2="283.719" gradientUnits="userSpaceOnUse">
<stop stop-color="#00876D"/>
<stop offset="1" stop-color="#1BD1B0"/>
</linearGradient>
<linearGradient id="paint12_linear" x1="44.9962" y1="332.772" x2="61.1326" y2="332.772" gradientUnits="userSpaceOnUse">
<stop stop-color="#00CCA6"/>
<stop offset="0.9882" stop-color="white"/>
</linearGradient>
<linearGradient id="paint13_linear" x1="133.709" y1="269.623" x2="108.301" y2="289.341" gradientUnits="userSpaceOnUse">
<stop stop-color="#00CCA6"/>
<stop offset="0.9882" stop-color="white"/>
</linearGradient>
<linearGradient id="paint14_linear" x1="32.8955" y1="-29.7084" x2="177.136" y2="156.244" gradientUnits="userSpaceOnUse">
<stop stop-color="#00876D"/>
<stop offset="1" stop-color="#1BD1B0"/>
</linearGradient>
<linearGradient id="paint15_linear" x1="56.2104" y1="96.8528" x2="149.849" y2="37.3402" gradientUnits="userSpaceOnUse">
<stop stop-color="#00CCA6"/>
<stop offset="0.9882" stop-color="white"/>
</linearGradient>
<linearGradient id="paint16_linear" x1="365.408" y1="478.507" x2="339.089" y2="385.444" gradientUnits="userSpaceOnUse">
<stop stop-color="#00876D"/>
<stop offset="1" stop-color="#1BD1B0"/>
</linearGradient>
<linearGradient id="paint17_linear" x1="277.74" y1="384.542" x2="364.548" y2="320.153" gradientUnits="userSpaceOnUse">
<stop stop-color="#00CCA6"/>
<stop offset="0.9882" stop-color="white"/>
</linearGradient>
</defs>
</svg>
